<svg xmlns="http://www.w3.org/2000/svg" width="24" height="24"><g fill="none" fill-rule="evenodd"><circle cx="12" cy="12" r="12" fill="#F2C429"/><path fill="#000" fill-rule="nonzero" d="M14.8 17.429a8.812 8.812 0 01-8.8-8.8A2.629 2.629 0 018.629 6c.147-.001.295.012.44.04.14.02.278.055.411.103a.57.57 0 01.371.428l.783 3.43a.572.572 0 01-.148.525c-.075.08-.08.085-.783.451a5.657 5.657 0 002.783 2.794c.371-.708.377-.714.457-.788a.57.57 0 01.526-.149l3.428.783a.573.573 0 01.412.372 2.48 2.48 0 01.142.851 2.63 2.63 0 01-2.651 2.589z"/></g></svg>