<svg width="364" height="254" viewBox="0 0 364 254" fill="none" xmlns="http://www.w3.org/2000/svg">
<g clip-path="url(#clip0_31_296)">
<path d="M8.19914 228.883C7.46086 228.874 6.7253 228.974 6.01658 229.181C5.4302 229.341 4.88129 229.616 4.40149 229.989C3.98085 230.336 3.65122 230.781 3.44116 231.284C3.2191 231.811 3.10767 232.378 3.11378 232.95C3.11362 233.378 3.17237 233.804 3.28838 234.216C3.43213 234.692 3.68073 235.129 4.0159 235.496C4.50723 236.021 5.06772 236.476 5.68192 236.849C6.61227 237.423 7.58514 237.924 8.592 238.348C10.047 238.996 11.2038 239.607 12.186 240.174C13.0652 240.662 13.871 241.272 14.5795 241.986C15.1843 242.602 15.6398 243.348 15.9109 244.168C16.2029 245.087 16.3405 246.049 16.3183 247.013C16.3134 247.874 16.143 248.726 15.8163 249.523C15.472 250.37 14.954 251.136 14.2958 251.771C13.5544 252.468 12.6846 253.014 11.7349 253.379C10.5736 253.817 9.33836 254.027 8.09729 253.997C6.79624 254.026 5.49714 253.882 4.23416 253.568C3.33567 253.353 2.48308 252.978 1.71694 252.462C1.13981 252.073 0.669548 251.545 0.349204 250.927C0.103491 250.381 -0.0158763 249.787 -5.04521e-06 249.188C-0.00298066 248.822 0.0560549 248.458 0.1746 248.111C0.295103 247.787 0.483619 247.492 0.727515 247.246C0.957508 246.989 1.24049 246.786 1.55689 246.649C1.91407 246.501 2.29809 246.429 2.68454 246.438C3.04095 246.434 3.39464 246.5 3.7249 246.635C4.02432 246.756 4.29461 246.939 4.51789 247.173C4.73783 247.404 4.91078 247.676 5.02716 247.973C5.14811 248.294 5.20974 248.634 5.20904 248.977C5.23119 249.322 5.17753 249.667 5.05184 249.989C4.92615 250.311 4.73147 250.601 4.48152 250.84C3.96407 251.269 3.30575 251.492 2.63362 251.465V251.538C2.77897 251.684 2.94001 251.813 3.11378 251.924C3.4233 252.126 3.75534 252.292 4.10321 252.418C4.61435 252.604 5.13994 252.748 5.67465 252.848C6.39463 252.978 7.12554 253.039 7.85721 253.029C8.56004 253.031 9.2599 252.938 9.93792 252.753C10.5926 252.586 11.2164 252.316 11.7858 251.953C12.3054 251.623 12.7512 251.19 13.0954 250.68C13.437 250.181 13.615 249.589 13.6046 248.984C13.607 248.47 13.5055 247.96 13.3063 247.486C13.0453 246.936 12.665 246.451 12.1932 246.067C11.4877 245.482 10.7247 244.97 9.91609 244.539C8.94606 243.986 7.6826 243.361 6.12571 242.662C5.11606 242.253 4.16457 241.712 3.29566 241.054C2.61774 240.53 2.03035 239.899 1.55689 239.185C1.14817 238.556 0.850413 237.862 0.676588 237.133C0.51695 236.417 0.43644 235.685 0.436507 234.951C0.432272 234.025 0.610261 233.108 0.960321 232.251C1.29509 231.397 1.81138 230.625 2.47356 229.989C3.17954 229.329 4.01074 228.816 4.91803 228.483C5.98059 228.097 7.10514 227.909 8.23552 227.93C9.29078 227.911 10.3429 228.051 11.3566 228.345C12.1438 228.581 12.8828 228.956 13.5391 229.451C14.0928 229.876 14.5409 230.424 14.8487 231.051C15.1304 231.647 15.277 232.298 15.2779 232.957C15.2792 233.299 15.2201 233.639 15.1033 233.961C14.9927 234.27 14.8221 234.555 14.6013 234.798C14.3718 235.043 14.0945 235.239 13.7865 235.373C13.4327 235.524 13.0508 235.598 12.6661 235.591C12.3097 235.595 11.956 235.528 11.6258 235.394C11.325 235.277 11.0505 235.102 10.8182 234.878C10.591 234.655 10.4126 234.388 10.2944 234.092C10.17 233.777 10.1083 233.441 10.1125 233.103C10.1049 232.729 10.1743 232.357 10.3162 232.011C10.446 231.707 10.6395 231.434 10.8837 231.211C11.1283 230.992 11.4157 230.826 11.7276 230.724C12.0655 230.612 12.4193 230.555 12.7752 230.556V230.491C12.6456 230.349 12.5045 230.217 12.3533 230.098C12.0914 229.879 11.8 229.698 11.4875 229.56C11.0477 229.353 10.5867 229.194 10.1125 229.087C9.4847 228.945 8.84265 228.877 8.19914 228.883Z" fill="#39312A"/>
<path d="M40.4282 241.404C40.4263 240.121 40.5679 238.843 40.8502 237.592C41.1315 236.326 41.5792 235.102 42.1816 233.954C42.7635 232.815 43.5168 231.772 44.4151 230.862C45.3506 229.937 46.4644 229.212 47.6889 228.73C49.0513 228.186 50.5071 227.914 51.974 227.93C53.6842 227.891 55.3619 228.401 56.7611 229.385C57.3722 229.755 57.8813 230.271 58.2421 230.887C58.603 231.503 58.8041 232.2 58.8272 232.914C58.8433 233.561 58.6117 234.191 58.1797 234.674C57.953 234.919 57.6751 235.111 57.3659 235.237C57.0566 235.363 56.7234 235.419 56.39 235.402C56.0678 235.414 55.7465 235.36 55.4453 235.245C55.144 235.13 54.869 234.956 54.6367 234.732C54.4122 234.512 54.2355 234.248 54.1178 233.956C54.0002 233.665 53.944 233.352 53.9528 233.037C53.9367 232.407 54.1693 231.795 54.6003 231.335C54.8025 231.113 55.0501 230.937 55.3262 230.819C55.6024 230.701 55.9007 230.644 56.2009 230.651H56.4773V230.586C56.1162 230.1 55.6312 229.721 55.0732 229.487C54.2139 229.058 53.2616 228.848 52.3014 228.876C50.1916 228.876 48.4528 229.974 47.0996 232.164C45.7464 234.354 45.0625 237.257 45.0625 240.858C45.0549 242.323 45.1889 243.784 45.4627 245.223C45.7007 246.52 46.1016 247.781 46.6558 248.977C47.1294 250.039 47.8624 250.965 48.7874 251.669C49.6709 252.329 50.7475 252.68 51.8503 252.666C53.4119 252.699 54.9359 252.184 56.1572 251.211C57.3992 250.209 58.376 248.917 59.0018 247.449L59.8239 247.835C58.1652 251.943 55.3739 253.997 51.4502 253.997C49.911 254.019 48.3798 253.773 46.925 253.27C45.7423 252.873 44.6582 252.228 43.7457 251.378C42.9153 250.561 42.2442 249.596 41.7669 248.533C41.276 247.454 40.9311 246.314 40.7411 245.143C40.5313 243.908 40.4266 242.657 40.4282 241.404Z" fill="#39312A"/>
<path d="M82.5444 252.775V251.967L85.229 251.8V228.905L82.5444 228.73V227.93H92.3951V228.73L89.7105 228.905V239.505L99.081 239.367V228.905L96.3964 228.73V227.93H106.218V228.73L103.533 228.905V251.815L106.218 251.982V252.789H96.3964V251.982L99.081 251.815V240.553H89.6814V251.815L92.366 251.982V252.789L82.5444 252.775Z" fill="#39312A"/>
<path d="M128.043 229.094V228.294H137.712V229.094L135.319 229.262L139.953 246.635H140.018L145.402 227.923H146.181L152.452 246.569H152.517L157.501 229.262L155.151 229.087V228.287H160.665V229.087L158.599 229.262L151.528 253.481H150.742L144.34 235.293L139.014 253.481H138.156L130.655 229.262L128.043 229.094Z" fill="#39312A"/>
<path d="M182.906 252.775V251.967L185.583 251.8V228.905L182.906 228.73V227.93H200.068L200.243 235.016H199.515C199.403 234.337 199.255 233.664 199.071 233.001C198.907 232.426 198.683 231.87 198.402 231.342C198.154 230.835 197.808 230.382 197.383 230.011C196.942 229.646 196.432 229.371 195.885 229.203C195.204 228.979 194.491 228.871 193.775 228.883C192.805 228.883 191.568 228.941 190.065 229.058V239.403C190.414 239.439 191.047 239.454 191.963 239.454C192.437 239.501 192.916 239.445 193.367 239.29C193.817 239.136 194.229 238.887 194.575 238.559C195.092 237.963 195.354 236.871 195.354 235.293H196.314V244.641H195.354C195.354 243.062 195.092 241.964 194.561 241.346C194.224 241.007 193.817 240.748 193.367 240.586C192.918 240.425 192.438 240.367 191.963 240.414C191.069 240.414 190.436 240.414 190.065 240.465V251.64C191.549 251.756 193.023 251.815 194.488 251.815C195.096 251.821 195.703 251.764 196.299 251.647C196.781 251.554 197.241 251.368 197.653 251.102C198.019 250.863 198.348 250.572 198.627 250.236C198.933 249.87 199.179 249.457 199.355 249.014C199.555 248.526 199.72 248.025 199.85 247.515C199.981 247.013 200.112 246.402 200.25 245.667H200.977L200.788 252.775H182.906Z" fill="#39312A"/>
<path d="M225.007 252.775V251.967L227.714 251.815V228.905L225.036 228.73V227.93H234.851V228.73L232.173 228.905V251.815L234.851 251.982V252.789L225.007 252.775Z" fill="#39312A"/>
<path d="M258.786 236.093L259.324 227.93H275.475V228.854L263.449 251.887L270.084 251.989H270.15C270.795 251.985 271.43 251.822 271.998 251.516C272.553 251.207 273.037 250.783 273.416 250.272C273.837 249.686 274.171 249.041 274.406 248.359C274.684 247.615 274.905 246.851 275.068 246.074C275.228 245.347 275.359 244.488 275.475 243.543H276.261L275.73 252.775H258.837V251.815L271.489 228.781L265.625 228.883C264.846 228.846 264.069 228.988 263.354 229.298C262.639 229.608 262.004 230.079 261.5 230.673C260.583 231.822 259.936 233.634 259.564 236.093H258.786Z" fill="#39312A"/>
<path d="M300.102 252.775V251.967L302.779 251.8V228.905L300.102 228.73V227.93H317.25L317.424 235.016H316.697C316.585 234.337 316.437 233.664 316.253 233.001C316.089 232.426 315.864 231.87 315.584 231.342C315.336 230.835 314.99 230.382 314.565 230.011C314.123 229.646 313.614 229.371 313.066 229.203C312.386 228.979 311.673 228.871 310.957 228.883C309.986 228.883 308.75 228.941 307.246 229.058V239.403C307.595 239.439 308.228 239.454 309.145 239.454C309.619 239.501 310.098 239.445 310.548 239.29C310.999 239.136 311.411 238.887 311.757 238.559C312.273 237.963 312.535 236.871 312.535 235.293H313.496V244.641H312.535C312.535 243.062 312.273 241.964 311.742 241.346C311.406 241.007 310.998 240.748 310.549 240.586C310.099 240.425 309.62 240.367 309.145 240.414C308.25 240.414 307.617 240.414 307.246 240.465V251.64C308.73 251.756 310.205 251.815 311.669 251.815C312.277 251.821 312.884 251.764 313.481 251.647C313.963 251.554 314.422 251.368 314.834 251.102C315.201 250.863 315.529 250.572 315.809 250.236C316.115 249.87 316.36 249.457 316.537 249.014C316.736 248.526 316.902 248.025 317.031 247.515C317.162 247.013 317.293 246.402 317.431 245.667H318.159L317.97 252.775H300.102Z" fill="#39312A"/>
<path d="M342.204 252.775V251.967L344.881 251.8V228.905L342.204 228.73V227.93H351.479C352.652 227.919 353.822 228.029 354.972 228.258C355.95 228.457 356.89 228.811 357.758 229.305C358.555 229.76 359.211 230.424 359.657 231.226C360.12 232.109 360.351 233.095 360.326 234.092C360.371 234.967 360.213 235.841 359.866 236.646C359.519 237.451 358.992 238.165 358.325 238.734C356.757 239.951 354.88 240.707 352.905 240.916C353.774 240.908 354.637 241.069 355.444 241.389C356.091 241.642 356.673 242.038 357.147 242.546C357.627 243.097 358.033 243.709 358.354 244.365C358.609 244.874 358.973 245.653 359.446 246.707C359.919 247.762 360.384 248.686 360.85 249.501C361.149 250.072 361.543 250.589 362.014 251.029C362.305 251.32 362.655 251.545 363.04 251.691C363.352 251.777 363.676 251.819 364 251.815V252.775H361.09C360.39 252.789 359.691 252.733 359.002 252.608C358.439 252.468 357.918 252.196 357.481 251.815C356.925 251.329 356.465 250.741 356.128 250.083C355.735 249.351 355.064 247.811 354.113 245.463C353.975 245.114 353.771 244.663 353.509 244.11C353.173 243.318 352.716 242.581 352.156 241.928C351.939 241.649 351.666 241.419 351.356 241.251C351.086 241.121 350.79 241.054 350.49 241.055H349.326V251.815L352.003 251.982V252.789L342.204 252.775ZM349.34 240.116H350.068C352.134 240.116 353.589 239.614 354.433 238.61C355.277 237.606 355.699 236.103 355.699 234.099C355.716 233.237 355.596 232.378 355.343 231.553C355.136 230.951 354.778 230.412 354.302 229.989C353.881 229.615 353.385 229.334 352.847 229.167C352.254 228.996 351.639 228.913 351.021 228.92C350.461 228.93 349.902 228.978 349.348 229.065L349.34 240.116Z" fill="#39312A"/>
<path d="M142.383 206.418C142.383 205.832 142.449 205.249 142.579 204.679C142.705 204.101 142.908 203.543 143.183 203.02C143.449 202.501 143.792 202.025 144.202 201.609C144.62 201.195 145.114 200.867 145.657 200.641C146.278 200.388 146.943 200.262 147.614 200.27C148.396 200.257 149.161 200.497 149.796 200.954C150.076 201.121 150.309 201.356 150.474 201.637C150.639 201.918 150.731 202.236 150.742 202.562C150.747 202.856 150.64 203.142 150.444 203.362C150.34 203.473 150.214 203.561 150.073 203.618C149.932 203.676 149.781 203.703 149.629 203.697C149.482 203.703 149.335 203.679 149.197 203.626C149.06 203.574 148.934 203.494 148.829 203.391C148.725 203.29 148.644 203.169 148.59 203.035C148.536 202.901 148.511 202.757 148.516 202.613C148.51 202.326 148.617 202.049 148.814 201.841C148.906 201.74 149.018 201.659 149.144 201.605C149.269 201.551 149.405 201.525 149.542 201.529H149.673V201.492C149.503 201.274 149.28 201.103 149.025 200.997C148.635 200.802 148.203 200.707 147.767 200.721C147.271 200.731 146.788 200.876 146.369 201.14C145.95 201.404 145.611 201.777 145.388 202.22C144.719 203.428 144.399 204.798 144.464 206.177C144.459 206.849 144.52 207.519 144.645 208.178C144.751 208.77 144.935 209.344 145.191 209.888C145.406 210.372 145.738 210.795 146.159 211.117C146.561 211.419 147.053 211.577 147.556 211.568C148.269 211.586 148.965 211.348 149.52 210.899C150.089 210.443 150.537 209.853 150.822 209.182L151.193 209.357C150.437 211.219 149.163 212.15 147.374 212.15C146.671 212.162 145.972 212.051 145.307 211.823C144.768 211.642 144.272 211.349 143.852 210.965C143.475 210.589 143.169 210.148 142.95 209.662C142.722 209.172 142.56 208.653 142.47 208.12C142.395 207.556 142.366 206.986 142.383 206.418Z" fill="#39312A"/>
<path d="M165.736 211.881V211.517L166.697 211.437L170.451 200.226H170.814L174.692 211.437L175.74 211.517V211.881H171.491V211.517L172.568 211.437L171.629 208.593H168.057L167.133 211.437L168.21 211.517V211.881H165.736ZM168.217 208.12L171.455 208.054L169.869 203.18H169.832L168.217 208.12Z" fill="#39312A"/>
<path d="M190.494 211.881V211.517L191.716 211.437V200.997L190.494 200.917V200.554H197.995L198.075 203.784H197.631C197.603 203.398 197.54 203.016 197.442 202.642C197.355 202.332 197.218 202.04 197.034 201.776C196.852 201.514 196.6 201.31 196.307 201.187C195.935 201.046 195.54 200.98 195.143 200.99C194.686 200.98 194.228 201.004 193.775 201.063V205.981H194C194.297 205.986 194.594 205.966 194.888 205.923C195.1 205.881 195.301 205.794 195.477 205.668C195.662 205.522 195.791 205.316 195.841 205.086C195.923 204.753 195.959 204.41 195.95 204.068H196.387V208.338H195.95C196.001 207.808 195.876 207.276 195.594 206.825C195.439 206.669 195.252 206.55 195.045 206.477C194.839 206.404 194.618 206.379 194.401 206.403H193.775V211.445L195.31 211.525V211.888L190.494 211.881Z" fill="#39312A"/>
<path d="M213.382 211.881V211.517L214.604 211.437V200.997L213.382 200.888V200.524H221.202L221.275 203.755H220.948C220.896 203.446 220.828 203.14 220.744 202.838C220.668 202.574 220.565 202.318 220.438 202.074C220.321 201.846 220.163 201.641 219.973 201.47C219.771 201.304 219.539 201.178 219.289 201.099C218.979 201.001 218.654 200.954 218.329 200.961C217.878 200.961 217.31 200.961 216.634 201.034V205.755C216.794 205.755 217.085 205.755 217.499 205.755C217.716 205.776 217.934 205.75 218.14 205.68C218.345 205.609 218.534 205.496 218.692 205.348C218.974 204.904 219.099 204.379 219.049 203.856H219.485V208.163H219.049C219.1 207.635 218.972 207.105 218.685 206.657C218.53 206.505 218.344 206.388 218.139 206.315C217.934 206.242 217.716 206.215 217.499 206.235C217.092 206.235 216.772 206.235 216.634 206.235V211.328C217.31 211.379 217.987 211.408 218.649 211.408C218.927 211.409 219.204 211.384 219.478 211.335C219.698 211.289 219.908 211.203 220.097 211.081C220.262 210.971 220.412 210.839 220.54 210.688C220.675 210.518 220.783 210.33 220.86 210.128C220.953 209.906 221.028 209.677 221.086 209.444C221.144 209.218 221.21 208.935 221.268 208.607H221.61L221.522 211.845L213.382 211.881Z" fill="#39312A"/>
<path d="M230.355 102.804C229.396 100.029 227.836 97.4995 225.786 95.3978C223.349 92.9537 220.585 90.8603 217.572 89.1775C214.211 87.2374 210.1 85.1422 205.241 82.8917C201.759 81.4386 198.396 79.7189 195.179 77.7482C193.075 76.471 191.156 74.9117 189.475 73.1139C189.344 72.9611 189.272 72.8229 189.148 72.6701C190.582 72.3414 191.88 71.5794 192.865 70.4875C194.353 68.8297 195.154 66.6684 195.106 64.4418C195.106 60.6951 193.549 57.3631 190.501 54.4239C190.581 54.3511 190.639 54.2565 190.727 54.1838C192.336 52.86 194.194 51.8706 196.19 51.2737C198.646 50.5689 201.195 50.2378 203.749 50.2916C205.978 50.2582 208.203 50.4902 210.377 50.9827C212 51.3556 213.58 51.8969 215.091 52.5978C216.162 53.0886 217.166 53.7119 218.081 54.453C218.593 54.872 219.079 55.3215 219.536 55.7989V56.039C218.318 56.0304 217.106 56.2221 215.95 56.6064C214.875 56.9583 213.884 57.5279 213.04 58.2797C212.204 59.0504 211.541 59.9904 211.097 61.037C210.6 62.2203 210.353 63.4933 210.37 64.7765C210.352 65.9425 210.56 67.1009 210.981 68.1885C211.384 69.2002 211.994 70.1168 212.77 70.8804C213.569 71.6569 214.514 72.2676 215.55 72.6773C216.691 73.1286 217.909 73.3535 219.136 73.3394C220.446 73.3681 221.748 73.1202 222.956 72.6119C224.012 72.1629 224.963 71.4989 225.748 70.6622C226.533 69.8255 227.136 68.8344 227.517 67.752C227.917 66.649 228.119 65.4841 228.114 64.3109C228.115 62.0439 227.606 59.8058 226.622 57.7632C225.577 55.6061 224.042 53.7228 222.141 52.2631C219.886 50.5447 217.337 49.2505 214.618 48.4437C211.137 47.4217 207.522 46.9312 203.895 46.9886C200.017 46.9238 196.16 47.5723 192.516 48.902C190.601 49.6353 188.778 50.5874 187.082 51.7393C182.493 48.7133 177.103 47.132 171.607 47.1996C166.576 47.1415 161.582 48.076 156.911 49.9496C152.713 51.6118 148.895 54.1063 145.686 57.283C142.603 60.4104 140.014 63.9897 138.01 67.8975C135.946 71.8478 134.41 76.0526 133.442 80.4036C132.575 84.1297 132.181 87.9502 132.27 91.7747C132.182 95.5969 132.575 99.4149 133.442 103.139C134.41 107.49 135.946 111.694 138.01 115.645C140.014 119.555 142.602 123.136 145.686 126.266C148.897 129.438 152.715 131.93 156.911 133.593C161.582 135.466 166.576 136.401 171.607 136.343C176.253 136.392 180.837 135.279 184.943 133.105C186.701 133.923 188.527 134.587 190.399 135.091C194.735 136.151 199.192 136.641 203.655 136.546C207.875 136.634 212.073 135.913 216.022 134.422C219.282 133.174 222.264 131.295 224.796 128.893C227.061 126.715 228.844 124.085 230.027 121.174C231.155 118.439 231.743 115.511 231.759 112.553C231.827 109.248 231.353 105.955 230.355 102.804ZM184.404 110.61C183.082 110.581 181.769 110.828 180.549 111.338C179.46 111.804 178.483 112.496 177.682 113.368C176.901 114.239 176.303 115.258 175.922 116.365C175.515 117.547 175.313 118.789 175.325 120.039C175.487 122.231 176.128 124.36 177.202 126.277C178.277 128.194 179.76 129.852 181.545 131.134C178.773 132.387 175.755 133.004 172.713 132.938C165.438 132.938 159.484 129.167 154.853 121.625C150.221 114.083 147.89 104.14 147.861 91.7966C147.861 79.4287 150.192 69.486 154.853 61.9683C159.514 54.4506 165.467 50.6723 172.713 50.6335C175.989 50.5476 179.236 51.2645 182.171 52.7215C182.964 53.1434 183.626 53.5508 184.237 53.9437C184.186 54.0019 184.121 54.0456 184.062 54.1038C181.81 56.2484 180.04 58.8473 178.868 61.7282C177.662 64.6711 177.052 67.8238 177.071 71.0041C177.068 73.5494 177.349 76.087 177.908 78.5703C178.492 81.0837 179.514 83.4748 180.927 85.6345C182.556 88.0771 184.574 90.2372 186.9 92.0294C189.882 94.3109 193.158 96.1782 196.641 97.5804C201.976 100.005 206.305 102.154 209.628 104.026C212.397 105.541 215.01 107.327 217.427 109.359C219.042 110.687 220.346 112.353 221.246 114.241C221.931 115.873 222.277 117.628 222.265 119.399C222.29 121.47 221.684 123.501 220.526 125.219C219.34 126.968 217.807 128.454 216.022 129.584C214.069 130.826 211.933 131.757 209.693 132.341C207.365 132.976 204.962 133.299 202.549 133.302C200.017 133.334 197.488 133.122 194.997 132.669C193.167 132.336 191.369 131.85 189.621 131.214C189.257 131.068 188.973 130.93 188.646 130.784C192.938 127.481 194.815 123.618 194.815 119.144C194.861 116.918 194.06 114.757 192.574 113.098C191.802 112.256 190.853 111.594 189.795 111.161C188.738 110.727 187.598 110.531 186.456 110.588L184.404 110.61Z" fill="#CA9E67"/>
<path d="M126.785 172.704C123.875 171.802 120.448 170.762 119.182 170.398L116.876 169.736L120.768 169.067C122.915 168.696 126.974 167.917 129.804 167.335C137.683 165.728 145.569 166.193 150.677 168.579L152.044 169.212L150.335 170.74C145.875 174.734 135.966 175.556 126.785 172.704ZM147.155 165.909C141.423 163.821 137.37 159.078 135.21 151.941C134.522 149.733 133.968 147.486 133.551 145.211L133.223 142.869L140.36 150.1C147.723 157.557 149.229 159.791 149.687 163.96C149.986 166.382 149.498 166.753 147.192 165.909H147.155ZM117.742 160.926C111.638 158.983 110.059 158.176 104.217 154.044C102.235 152.719 100.326 151.289 98.4989 149.758C99.2992 149.169 118.411 151.301 120.084 152.167C120.543 152.407 122.471 153.374 124.362 154.349C126.327 155.335 128.176 156.535 129.877 157.928L131.943 159.784L130.044 160.598C126.916 161.923 121.423 162.083 117.778 160.926H117.742ZM127.68 154.174C124.355 151.606 121.358 147.219 120.652 143.887C120.246 140.594 120.115 137.272 120.259 133.957L120.426 126.9L122.362 130.697C123.424 132.793 124.922 135.434 125.686 136.576C129.389 142.134 131.463 149.671 130.444 153.891L129.964 155.891L127.68 154.174ZM107.673 143.771C105.942 143.384 104.255 142.821 102.639 142.09C99.4447 140.395 93.9883 135.543 91.5948 132.291C90.3071 130.53 88.5319 128.297 87.6589 127.329C85.8619 125.336 85.9711 125.241 88.7793 126.347C90.4069 126.921 92.072 127.383 93.7628 127.729C97.1821 128.413 103.104 131.192 106.443 133.666C108.975 135.543 112.918 140.061 114.133 142.469C114.861 143.924 114.861 144.026 113.981 144.033C113.308 144.052 112.638 144.132 111.98 144.273C110.528 144.309 109.078 144.14 107.673 143.771ZM112.111 136.969C110.736 135.324 110.074 133.797 109.412 130.705C108.958 128.67 108.666 126.602 108.539 124.521C108.539 121.502 110.474 112.306 111.667 109.643C112.671 107.402 112.686 107.395 112.737 109.003C113.199 112.112 113.831 115.194 114.628 118.235C115.785 122.993 116.476 127.169 116.476 129.402C116.476 132.931 115.312 138.271 114.395 138.86C114.104 139.049 113.071 138.169 112.074 136.969H112.111ZM97.9751 122.316C93.9364 120.733 90.4874 117.937 88.1027 114.314C87.0769 112.735 84.8143 108.494 83.0828 104.914L79.9181 98.3665L82.4208 99.8215C83.7885 100.629 86.3057 102.281 88.0154 103.495C89.7251 104.71 91.944 106.216 92.9698 106.857C96.8038 109.243 101.162 116.198 101.94 121.189C102.333 123.771 102.158 123.771 97.9751 122.316ZM101.664 115.572C100.209 111.666 100.209 106.726 101.613 102.091C102.748 98.3301 109.557 87.0244 109.528 88.9451C109.448 95.2672 108.386 107.941 107.775 109.919C106.734 113.288 105.134 116.424 103.839 117.624C102.791 118.562 102.755 118.526 101.664 115.536V115.572ZM91.9658 98.1118C87.1205 94.8453 84.3851 89.3161 82.8209 79.6546C82.3844 76.9337 81.8533 74.2492 81.6496 73.6817C81.3586 72.8887 81.7151 73.0269 83.1774 74.2783C84.2323 75.1731 85.6728 76.3226 86.3857 76.8246C88.6192 78.4106 94.3012 87.0753 95.3415 90.4801C96.5128 94.3287 96.6656 100.069 95.5889 100.069C95.1887 100.04 93.5591 99.1595 91.9658 98.0827V98.1118ZM97.6186 93.3684C97.3925 91.2284 97.5651 89.065 98.1279 86.988C99.583 81.066 101.213 78.3742 106.371 73.3179C108.997 70.7425 111.151 68.7564 111.151 68.9092C111.151 69.062 110.765 70.4515 110.299 72.0011C107.724 80.5786 106.109 85.2856 105.156 87.0026C103.701 89.6508 98.8409 96.2712 98.3607 96.2712C98.1497 96.2421 97.8151 94.9326 97.6186 93.3393V93.3684ZM93.8501 75.6678C89.6159 73.0197 87.9281 67.1704 88.5974 57.4798C88.8229 54.1696 89.0121 50.6921 89.0194 49.7463C89.0194 48.073 89.0848 48.1094 90.8382 51.0995C91.6067 52.4546 92.4571 53.7617 93.3845 55.0135C94.4758 56.2503 96.5637 61.3793 97.3276 64.6823C98.0042 67.5924 97.8369 70.6407 96.7893 74.6202C96.1854 77.0065 96.0836 77.0428 93.8501 75.6678ZM98.9427 72.0302C98.9427 67.4396 101.576 62.4051 106.123 58.3092C108.037 56.585 117.327 51.1577 118.375 51.1577C118.528 51.1577 117.909 52.0744 116.985 53.1947C116.061 54.3151 113.879 57.4289 112.133 60.1135C108.616 65.4971 105.161 69.4063 101.766 71.8411C99.081 73.7836 98.9427 73.7908 98.9427 72.0448V72.0302ZM99.6703 53.7695C96.2364 47.8111 96.3746 43.9334 100.398 31.6529L101.911 27.0841L103.701 32.6569C105.112 37.022 105.49 39.1027 105.49 42.3838C105.49 46.9454 104.035 51.7033 101.911 54.2497L100.725 55.6538L99.6703 53.7695ZM105.112 51.5869C106.938 45.6867 114.475 40.0557 123.446 37.8877C128.713 36.6146 129.084 36.811 125.956 39.2191C124.413 40.4122 122.318 42.1946 121.263 43.1913C116.825 47.4401 108.168 52.7873 105.694 52.8019C104.923 52.8019 104.799 52.54 105.098 51.5797L105.112 51.5869ZM109.681 34.7521C108.881 30.905 109.293 26.9046 110.86 23.301C112.241 20.8245 113.835 18.4731 115.625 16.2731L119.03 12.0462L119.393 15.5892C120.208 23.3664 118.346 29.8268 114.039 34.2138C112.496 35.7779 110.99 37.0584 110.699 37.0584C110.408 37.0584 109.972 36.0253 109.681 34.7521ZM117.604 32.6787C122.129 28.3136 126.661 26.7348 134.911 26.7494C140.731 26.7494 141.772 27.3241 138.36 28.6337C136.956 29.172 133.9 30.5762 131.572 31.762C127.253 34.021 122.476 35.2651 117.604 35.3996H114.759L117.604 32.6787ZM132.227 23.5047C131.415 23.3949 130.628 23.1489 129.899 22.7771C129.295 22.1588 130.757 20.922 133.573 19.6488C137.807 17.7427 144.391 17.8664 150.517 19.9616C153.07 20.8347 155.151 21.7368 155.151 21.9769C155.151 22.217 154.263 22.4061 153.165 22.4134C152.066 22.4207 148.56 22.7771 145.351 23.2137C139.116 24.0576 135.421 24.1376 132.212 23.4974L132.227 23.5047ZM124.697 21.5185C123.54 16.7824 127.01 10.9113 133.725 6.24062C135.45 5.04748 137.363 3.79615 137.989 3.46149L139.131 2.8431L138.185 6.64075C136.854 11.9371 135.362 14.8181 132.285 18.0192C130.102 20.2817 126.319 22.9445 125.272 22.9445C125.133 22.9372 124.886 22.297 124.697 21.5185ZM141.648 11.9371C142.754 6.6844 145.489 4.51639 153.812 2.31929C155.857 1.78092 157.966 1.15525 158.505 0.922447C160.367 0.144001 157.952 3.83253 153.827 8.04487C149.862 12.1117 146.755 13.705 142.812 13.705C141.357 13.705 141.292 13.6104 141.648 11.9371Z" fill="#CA9E67"/>
<path d="M215.39 170.74L213.687 169.212L215.048 168.579C220.14 166.193 228.041 165.727 235.92 167.335C238.75 167.917 242.81 168.696 244.956 169.067L248.848 169.736L246.542 170.398C245.276 170.762 241.857 171.802 238.939 172.704C229.758 175.556 219.849 174.734 215.39 170.74ZM216.001 163.96C216.459 159.791 217.965 157.557 225.327 150.1L232.472 142.869L232.137 145.211C231.72 147.486 231.166 149.733 230.478 151.941C228.296 159.078 224.265 163.821 218.532 165.909C216.226 166.753 215.739 166.382 216.001 163.96ZM235.644 160.569L233.745 159.755L235.811 157.899C237.511 156.506 239.361 155.306 241.326 154.32C243.217 153.374 245.145 152.407 245.603 152.137C247.277 151.272 266.389 149.14 267.189 149.729C265.363 151.262 263.454 152.692 261.471 154.014C255.65 158.147 254.05 158.954 247.953 160.897C244.301 162.083 238.808 161.923 235.644 160.569ZM235.76 155.913L235.28 153.913C234.261 149.678 236.335 142.156 240.038 136.598C240.802 135.455 242.3 132.814 243.363 130.719L245.298 126.922L245.465 133.979C245.596 137.288 245.452 140.602 245.036 143.887C244.308 147.219 241.333 151.606 238.008 154.174L235.76 155.913ZM253.781 144.273C253.123 144.132 252.453 144.052 251.78 144.033C250.914 144.033 250.9 143.902 251.627 142.469C252.842 140.061 256.785 135.543 259.317 133.666C262.656 131.192 268.578 128.413 272.005 127.729C273.694 127.383 275.356 126.921 276.981 126.347C279.79 125.241 279.891 125.336 278.102 127.329C277.229 128.297 275.454 130.53 274.166 132.291C271.772 135.557 266.316 140.395 263.122 142.09C261.506 142.821 259.819 143.384 258.088 143.771C256.683 144.14 255.233 144.309 253.781 144.273ZM251.365 138.846C250.456 138.271 249.277 132.931 249.285 129.388C249.285 127.154 250.012 122.978 251.133 118.22C251.93 115.18 252.561 112.098 253.024 108.988C253.075 107.38 253.09 107.388 254.094 109.628C255.294 112.291 257.222 121.487 257.222 124.506C257.094 126.587 256.802 128.655 256.349 130.69C255.687 133.782 255.025 135.31 253.657 136.954C252.653 138.169 251.627 139.049 251.365 138.846ZM263.784 121.232C264.563 116.242 268.92 109.286 272.754 106.9C273.78 106.26 276.006 104.754 277.709 103.539C279.411 102.324 281.936 100.673 283.311 99.8651L285.806 98.4101L282.649 104.958C280.91 108.493 278.64 112.749 277.622 114.314C275.234 117.944 271.776 120.741 267.727 122.316C263.566 123.771 263.362 123.771 263.784 121.232ZM261.885 117.595C260.59 116.394 258.975 113.23 257.949 109.89C257.338 107.911 256.283 95.2381 256.196 88.9159C256.196 86.9953 262.977 98.3009 264.112 102.062C265.508 106.697 265.487 111.636 264.061 115.543C262.969 118.526 262.933 118.562 261.907 117.588L261.885 117.595ZM270.135 100.047C269.059 100.047 269.211 94.3069 270.383 90.4583C271.423 87.0535 277.105 78.3887 279.339 76.8027C280.066 76.3008 281.521 75.1513 282.547 74.2564C284.002 73.0051 284.366 72.8669 284.075 73.6599C283.871 74.2273 283.347 76.9119 282.903 79.6328C281.339 89.2943 278.604 94.8234 273.758 98.09C272.165 99.1594 270.536 100.04 270.135 100.04V100.047ZM267.364 96.2493C266.883 96.2493 262.031 89.6289 260.569 86.9807C259.615 85.2638 258 80.5567 255.425 71.9793C254.959 70.4297 254.574 69.0692 254.574 68.8873C254.574 68.7054 256.756 70.7207 259.354 73.2961C264.512 78.3887 266.134 81.0442 267.596 86.9662C268.159 89.0432 268.332 91.2066 268.106 93.3465C267.909 94.9325 267.575 96.2421 267.364 96.2421V96.2493ZM268.906 74.6056C267.858 70.6261 267.691 67.5778 268.368 64.6677C269.131 61.3648 271.219 56.2358 272.311 54.999C273.238 53.7472 274.088 52.44 274.857 51.0849C276.61 48.0948 276.661 48.0584 276.676 49.7317C276.676 50.6775 276.872 54.155 277.098 57.4653C277.767 67.1777 276.079 73.0269 271.845 75.6533C269.641 77.0428 269.539 77.0064 268.906 74.5984V74.6056ZM263.944 71.8629C260.549 69.4378 257.096 65.5286 253.584 60.1353C251.831 57.4507 249.641 54.3151 248.724 53.2165C247.808 52.118 247.182 51.1795 247.335 51.1795C248.383 51.1795 257.673 56.6068 259.586 58.331C264.133 62.4269 266.767 67.4614 266.767 72.052C266.767 73.7908 266.643 73.7835 263.944 71.8556V71.8629ZM264.985 55.6756L263.799 54.2714C261.667 51.7251 260.227 46.9962 260.227 42.4056C260.227 39.1245 260.598 37.0656 262.009 32.6787L263.799 27.1059L265.312 31.6747C269.364 43.9552 269.502 47.8329 266.039 53.7913L264.985 55.6756ZM260.045 52.7655C257.571 52.7655 248.914 47.4037 244.476 43.1549C243.443 42.1582 241.333 40.3758 239.783 39.1827C236.655 36.7746 237.026 36.5782 242.293 37.8513C251.264 40.0339 258.801 45.6503 260.627 51.5505C260.925 52.54 260.801 52.8019 260.045 52.7946V52.7655ZM256.087 34.7448C255.825 36.018 255.359 37.051 255.068 37.051C254.777 37.051 253.242 35.7415 251.722 34.2064C247.415 29.8413 245.553 23.3591 246.367 15.5819L246.738 12.0389L250.136 16.2658C251.925 18.4657 253.52 20.8172 254.901 23.2936C256.47 26.8965 256.884 30.8969 256.087 34.7448ZM250.994 35.4214H248.15C243.278 35.2869 238.5 34.0428 234.181 31.7838C231.853 30.5979 228.798 29.1938 227.401 28.6555C223.982 27.3459 225.022 26.7857 230.849 26.7712C239.092 26.7712 243.625 28.3135 248.15 32.7005L250.994 35.4214ZM220.402 23.1991C217.201 22.7626 213.68 22.3988 212.589 22.3988C211.497 22.3988 210.602 22.2024 210.602 21.9623C210.602 21.7222 212.683 20.8201 215.237 19.9471C221.362 17.8518 227.947 17.7281 232.181 19.6342C234.996 20.9074 236.458 22.1442 235.855 22.7626C235.125 23.1343 234.338 23.3803 233.527 23.4901C230.304 24.1376 226.615 24.0575 220.388 23.1991H220.402ZM240.467 22.9372C239.419 22.9372 235.629 20.2744 233.454 18.0119C230.376 14.8108 228.885 11.9298 227.554 6.63344L226.608 2.86489L227.75 3.48328C228.376 3.81794 230.296 5.06927 232.013 6.2624C238.728 10.9113 242.199 16.7823 241.042 21.5403C240.809 22.2969 240.576 22.9372 240.453 22.9372H240.467ZM222.912 13.7049C218.969 13.7049 215.87 12.1117 211.897 8.04483C207.772 3.81794 205.35 0.143962 207.219 0.922409C207.758 1.15522 209.868 1.78088 211.912 2.31925C220.235 4.50181 222.97 6.68437 224.076 11.9371C224.433 13.6104 224.367 13.7049 222.912 13.7049Z" fill="#CA9E67"/>
<path d="M159.523 166.28L162.084 165.553H162.412V173.774L163.306 173.832V174.101H160.054V173.832L160.949 173.774V166.266L159.589 166.593L159.523 166.28Z" fill="#CA9E67"/>
<path d="M173.15 168.281C173.146 168.036 173.173 167.791 173.23 167.553C173.291 167.298 173.389 167.053 173.521 166.826C173.658 166.586 173.832 166.37 174.037 166.185C174.262 165.98 174.527 165.824 174.816 165.727C175.159 165.607 175.521 165.548 175.885 165.553C176.203 165.547 176.521 165.594 176.824 165.691C177.072 165.764 177.306 165.88 177.515 166.033C177.708 166.179 177.873 166.359 178.002 166.564C178.128 166.766 178.233 166.98 178.315 167.204C178.394 167.441 178.452 167.684 178.49 167.932C178.531 168.172 178.558 168.415 178.57 168.659C178.57 168.877 178.57 169.12 178.57 169.387C178.648 170.658 178.397 171.928 177.842 173.075C177.618 173.468 177.289 173.791 176.892 174.008C176.495 174.225 176.046 174.328 175.594 174.305C175.289 174.308 174.985 174.266 174.692 174.181C174.474 174.124 174.269 174.025 174.088 173.89C173.947 173.776 173.826 173.638 173.732 173.482C173.654 173.356 173.596 173.219 173.557 173.075C173.529 172.963 173.514 172.848 173.513 172.733C173.509 172.507 173.586 172.288 173.732 172.115C173.807 172.021 173.904 171.948 174.014 171.901C174.125 171.854 174.245 171.835 174.365 171.846C174.465 171.843 174.564 171.861 174.657 171.899C174.749 171.936 174.833 171.992 174.903 172.064C174.976 172.141 175.034 172.233 175.071 172.333C175.108 172.433 175.126 172.539 175.121 172.646C175.127 172.749 175.11 172.853 175.073 172.95C175.035 173.046 174.977 173.134 174.903 173.206C174.756 173.36 174.556 173.451 174.343 173.461C174.43 173.619 174.569 173.742 174.736 173.81C174.965 173.91 175.213 173.96 175.463 173.955C175.635 173.957 175.807 173.935 175.973 173.89C176.121 173.847 176.257 173.767 176.365 173.657C176.466 173.553 176.558 173.441 176.642 173.322C176.734 173.178 176.798 173.018 176.831 172.85C176.882 172.639 176.918 172.457 176.947 172.297C176.976 172.137 176.991 171.918 177.006 171.627C177.02 171.336 177.006 171.103 177.006 170.9C177.006 170.696 177.006 170.456 177.006 170.107C176.85 170.35 176.631 170.546 176.373 170.674C176.093 170.821 175.779 170.894 175.463 170.885C175.084 170.893 174.707 170.821 174.357 170.674C174.07 170.538 173.82 170.333 173.63 170.078C173.448 169.822 173.312 169.537 173.23 169.234C173.163 168.921 173.136 168.6 173.15 168.281ZM174.692 168.164C174.692 168.404 174.692 168.601 174.692 168.768C174.692 168.935 174.692 169.11 174.736 169.314C174.757 169.485 174.796 169.653 174.852 169.816C174.903 169.947 174.969 170.071 175.049 170.187C175.127 170.306 175.238 170.4 175.369 170.456C175.514 170.517 175.67 170.547 175.827 170.543C176.113 170.541 176.389 170.438 176.605 170.252C176.843 170.074 177.008 169.815 177.071 169.525V169.103C177.076 168.57 177.047 168.038 176.984 167.51C176.95 167.169 176.864 166.835 176.729 166.52C176.651 166.334 176.529 166.169 176.373 166.04C176.247 165.946 176.094 165.894 175.936 165.894C175.733 165.892 175.534 165.951 175.365 166.064C175.196 166.177 175.065 166.339 174.99 166.527C174.756 167.035 174.641 167.59 174.656 168.15L174.692 168.164Z" fill="#CA9E67"/>
<path d="M200.243 170.07C200.242 169.607 200.283 169.144 200.366 168.688C200.443 168.265 200.57 167.852 200.745 167.459C200.899 167.099 201.107 166.765 201.363 166.469C201.619 166.184 201.934 165.956 202.285 165.802C202.636 165.648 203.016 165.57 203.4 165.574C203.856 165.552 204.311 165.645 204.723 165.843C205.134 166.041 205.49 166.339 205.757 166.709C206.349 167.615 206.637 168.685 206.579 169.765C206.582 170.215 206.551 170.665 206.485 171.111C206.418 171.532 206.306 171.944 206.15 172.34C206.012 172.715 205.813 173.064 205.561 173.373C205.317 173.667 205.011 173.903 204.666 174.065C204.281 174.243 203.861 174.333 203.436 174.326C202.793 174.348 202.159 174.159 201.632 173.788C201.143 173.42 200.775 172.913 200.577 172.333C200.339 171.603 200.226 170.838 200.243 170.07ZM201.836 169.867C201.823 170.598 201.879 171.329 202.003 172.049C202.077 172.564 202.252 173.059 202.52 173.504C202.608 173.662 202.735 173.793 202.89 173.886C203.044 173.979 203.22 174.031 203.4 174.035C203.909 174.035 204.309 173.679 204.579 172.959C204.895 171.968 205.036 170.928 204.993 169.889C204.993 167.255 204.477 165.931 203.436 165.931C203.268 165.931 203.102 165.976 202.956 166.062C202.782 166.166 202.632 166.307 202.52 166.477C202.369 166.702 202.249 166.947 202.163 167.204C202.046 167.574 201.966 167.954 201.923 168.339C201.863 168.846 201.833 169.356 201.836 169.867Z" fill="#CA9E67"/>
<path d="M186.311 167.684C186.313 167.507 186.34 167.33 186.391 167.16C186.455 166.962 186.545 166.774 186.66 166.6C186.793 166.407 186.955 166.235 187.14 166.091C187.362 165.931 187.608 165.806 187.867 165.72C188.208 165.621 188.561 165.572 188.915 165.574C189.579 165.544 190.234 165.741 190.77 166.135C191.002 166.307 191.189 166.532 191.316 166.792C191.442 167.051 191.505 167.337 191.498 167.626C191.499 168.181 191.346 168.725 191.054 169.197C190.598 169.883 190.058 170.509 189.446 171.06C188.093 172.369 187.327 173.097 187.147 173.242H189.563C189.846 173.242 190.072 173.242 190.239 173.242C190.402 173.23 190.563 173.201 190.719 173.155C190.848 173.126 190.966 173.064 191.061 172.973C191.138 172.879 191.199 172.773 191.243 172.66C191.298 172.506 191.33 172.344 191.338 172.18H191.665L191.607 174.399H186.398V173.541C186.856 173.131 187.293 172.699 187.707 172.246C188.112 171.82 188.489 171.368 188.835 170.892C189.05 170.598 189.24 170.287 189.403 169.961C189.542 169.686 189.647 169.396 189.715 169.096C189.774 168.856 189.816 168.613 189.839 168.368C189.851 168.147 189.851 167.926 189.839 167.706C189.874 167.245 189.745 166.786 189.475 166.411C189.352 166.27 189.198 166.159 189.025 166.086C188.853 166.013 188.666 165.98 188.479 165.989C188.286 165.988 188.095 166.018 187.911 166.076C187.754 166.132 187.606 166.213 187.475 166.316C187.369 166.4 187.274 166.495 187.191 166.6C187.125 166.683 187.073 166.777 187.038 166.877H187.184C187.3 166.87 187.416 166.888 187.524 166.93C187.633 166.972 187.731 167.036 187.813 167.119C187.894 167.201 187.958 167.3 187.999 167.409C188.039 167.517 188.057 167.634 188.049 167.75C188.052 167.864 188.032 167.977 187.99 168.083C187.947 168.189 187.883 168.286 187.802 168.366C187.721 168.446 187.624 168.509 187.518 168.551C187.412 168.593 187.298 168.612 187.184 168.608C187.061 168.615 186.938 168.595 186.824 168.55C186.71 168.504 186.606 168.435 186.522 168.346C186.444 168.256 186.385 168.15 186.349 168.037C186.312 167.923 186.299 167.803 186.311 167.684Z" fill="#CA9E67"/>
<path d="M217.296 199.39L219.202 197.884C219.373 197.728 219.59 197.631 219.82 197.607C219.994 197.607 220.161 197.669 220.293 197.782C220.364 197.847 220.42 197.927 220.456 198.017C220.493 198.106 220.509 198.202 220.504 198.298C220.503 198.39 220.483 198.481 220.446 198.565C220.408 198.649 220.354 198.724 220.286 198.786C220.15 198.923 219.979 199.019 219.791 199.062L217.412 199.695L217.296 199.39Z" fill="#39312A"/>
</g>
<defs>
<clipPath id="clip0_31_296">
<rect width="364" height="253.17" fill="white" transform="translate(0 0.820312)"/>
</clipPath>
</defs>
</svg>
