<svg width="364" height="78" viewBox="0 0 364 78" fill="none" xmlns="http://www.w3.org/2000/svg">
<g clip-path="url(#clip0_31_318)">
<path d="M109.674 31.5169C109.142 31.5091 108.611 31.5793 108.099 31.7253C107.684 31.8491 107.297 32.0528 106.96 32.3249C106.662 32.5743 106.426 32.8914 106.274 33.2498C106.115 33.6256 106.035 34.0306 106.041 34.4389C106.04 34.7466 106.082 35.0529 106.168 35.3486C106.273 35.6904 106.455 36.0034 106.701 36.2633C107.052 36.6377 107.452 36.9625 107.89 37.2288C108.56 37.6375 109.26 37.9942 109.984 38.296C111 38.7635 111.854 39.2005 112.555 39.6071C113.183 39.9565 113.759 40.3908 114.268 40.8978C114.692 41.3304 115.017 41.8508 115.218 42.4223C115.429 43.0787 115.529 43.7658 115.513 44.455C115.509 45.0706 115.386 45.6796 115.152 46.2489C114.902 46.8537 114.531 47.4004 114.06 47.8547C113.532 48.3549 112.91 48.7453 112.23 49.0032C111.406 49.3145 110.53 49.4646 109.649 49.4453C108.72 49.4643 107.792 49.3617 106.889 49.1404C106.248 48.9845 105.638 48.7161 105.09 48.3476C104.677 48.0713 104.341 47.6934 104.115 47.25C103.919 46.8657 103.817 46.4411 103.815 46.01C103.813 45.7493 103.854 45.49 103.937 45.2427C104.019 45.0138 104.145 44.8032 104.308 44.6227C104.473 44.4405 104.676 44.2965 104.902 44.2009C105.156 44.0918 105.429 44.0381 105.705 44.0434C105.961 44.0415 106.215 44.0899 106.452 44.1857C106.665 44.274 106.857 44.4055 107.016 44.5719C107.173 44.7375 107.296 44.9327 107.377 45.1461C107.469 45.3738 107.514 45.6174 107.509 45.8627C107.528 46.1083 107.491 46.3549 107.404 46.585C107.316 46.8152 107.178 47.0231 107.001 47.1941C106.631 47.5008 106.16 47.6601 105.68 47.6413V47.6921C105.785 47.7955 105.901 47.8874 106.025 47.9665C106.248 48.1096 106.484 48.2288 106.732 48.3222C107.097 48.4561 107.472 48.5581 107.855 48.6271C108.373 48.7236 108.899 48.7678 109.425 48.7593C109.928 48.7587 110.429 48.6921 110.914 48.5611C111.38 48.4402 111.824 48.2464 112.23 47.9868C112.603 47.7512 112.923 47.4416 113.17 47.0772C113.412 46.7208 113.538 46.2984 113.531 45.8678C113.536 45.4982 113.465 45.1316 113.323 44.7904C113.134 44.3976 112.862 44.0507 112.525 43.7741C112.021 43.3515 111.476 42.9804 110.899 42.6663C110.221 42.2699 109.32 41.8227 108.195 41.3247C107.469 41.035 106.785 40.6487 106.163 40.1762C105.679 39.8018 105.259 39.3523 104.918 38.8448C104.622 38.3963 104.409 37.8991 104.287 37.3762C104.173 36.8588 104.115 36.3306 104.115 35.8008C104.112 35.1403 104.24 34.4857 104.491 33.8748C104.735 33.2739 105.104 32.7317 105.573 32.2843C106.077 31.8118 106.672 31.4469 107.321 31.212C108.079 30.9318 108.882 30.7956 109.689 30.8106C110.445 30.7977 111.199 30.8988 111.925 31.1104C112.492 31.2748 113.025 31.5418 113.496 31.898C113.892 32.2033 114.212 32.5965 114.431 33.0465C114.636 33.4711 114.742 33.9368 114.741 34.4084C114.741 34.6525 114.7 34.8949 114.619 35.125C114.541 35.3461 114.418 35.5486 114.258 35.7195C114.094 35.8957 113.895 36.0359 113.673 36.1311C113.421 36.2384 113.15 36.292 112.876 36.2887C112.62 36.2922 112.366 36.2456 112.129 36.1515C111.913 36.0645 111.716 35.9368 111.549 35.7754C111.388 35.6173 111.261 35.4268 111.178 35.2164C111.089 34.99 111.044 34.7484 111.046 34.505C111.043 34.2385 111.093 33.9741 111.194 33.7275C111.289 33.5121 111.427 33.3184 111.6 33.1583C111.777 33.0027 111.982 32.8835 112.205 32.8077C112.446 32.729 112.698 32.6896 112.952 32.6908V32.64C112.857 32.5416 112.757 32.4483 112.652 32.3605C112.463 32.2058 112.254 32.076 112.032 31.9743C111.715 31.8303 111.385 31.718 111.046 31.6389C110.595 31.5439 110.135 31.503 109.674 31.5169Z" fill="#39312A"/>
<path d="M132.715 40.4608C132.714 39.5448 132.813 38.6315 133.009 37.737C133.215 36.8322 133.536 35.9577 133.965 35.1351C134.383 34.3242 134.921 33.5808 135.561 32.9296C136.232 32.2699 137.028 31.7514 137.903 31.4051C138.872 31.016 139.908 30.8209 140.952 30.8309C142.179 30.8099 143.38 31.184 144.377 31.898C144.818 32.1626 145.185 32.5343 145.443 32.9785C145.702 33.4227 145.844 33.9251 145.856 34.4389C145.865 34.903 145.698 35.3534 145.389 35.6992C145.226 35.8715 145.027 36.0063 144.807 36.094C144.587 36.1818 144.35 36.2205 144.113 36.2074C143.88 36.2124 143.649 36.17 143.433 36.0826C143.217 35.9952 143.022 35.8648 142.858 35.6992C142.694 35.5439 142.564 35.3562 142.476 35.148C142.389 34.9398 142.346 34.7156 142.35 34.4897C142.338 34.0399 142.504 33.6036 142.812 33.2752C142.956 33.1144 143.132 32.986 143.329 32.8984C143.526 32.8108 143.74 32.766 143.956 32.767C144.021 32.7598 144.088 32.7598 144.154 32.767V32.7162C143.891 32.368 143.54 32.0961 143.137 31.9285C142.524 31.6247 141.845 31.4764 141.161 31.4966C139.65 31.4966 138.41 32.2809 137.441 33.8494C136.472 35.418 135.986 37.4863 135.982 40.0542C135.978 41.1044 136.073 42.1525 136.267 43.1846C136.441 44.1105 136.727 45.0116 137.121 45.8678C137.459 46.6261 137.983 47.2869 138.645 47.7887C139.275 48.2639 140.046 48.516 140.835 48.5052C141.953 48.5262 143.043 48.1539 143.915 47.4533C144.802 46.7347 145.5 45.8101 145.948 44.7599L146.532 45.0344C145.343 47.958 143.347 49.4182 140.546 49.4148C139.446 49.4322 138.351 49.2603 137.309 48.9066C136.465 48.6203 135.691 48.1598 135.037 47.5549C134.444 46.9706 133.965 46.2814 133.624 45.5222C133.266 44.7516 133.013 43.9363 132.872 43.0982C132.748 42.2248 132.696 41.3427 132.715 40.4608Z" fill="#39312A"/>
<path d="M162.819 48.5915V48.0172L164.735 47.8902V31.527L162.819 31.405V30.8308H169.837V31.405L167.921 31.527V39.109L174.614 39.0073V31.527L172.698 31.405V30.8308H179.716V31.405L177.8 31.527V47.8902L179.716 48.0172V48.5915H172.698V48.0172L174.614 47.8902V39.856H167.921V47.8902L169.837 48.0172V48.5915H162.819Z" fill="#39312A"/>
<path d="M195.327 31.6642V31.095H202.253V31.6642L200.561 31.7912L203.869 44.211H203.92L207.767 30.8308H208.326L212.808 44.1602H212.854L216.411 31.7912L214.729 31.6642V31.095H218.672V31.6642L217.148 31.7912L212.097 49.0997H211.538L206.964 36.1209L203.153 49.0997H202.594L197.207 31.7912L195.327 31.6642Z" fill="#39312A"/>
<path d="M234.553 48.5915V48.0172L236.469 47.8902V31.527L234.553 31.405V30.8308H246.81L246.937 35.9125H246.429C246.347 35.4279 246.241 34.9478 246.109 34.4744C245.991 34.0624 245.831 33.6639 245.631 33.2853C245.453 32.9242 245.206 32.6014 244.904 32.335C244.587 32.0751 244.223 31.8785 243.832 31.7557C243.34 31.5977 242.825 31.5222 242.308 31.5321C241.603 31.5321 240.719 31.5727 239.655 31.654V39.0327C239.904 39.0327 240.356 39.0683 241.012 39.0683C241.35 39.1025 241.692 39.063 242.014 38.9525C242.336 38.8419 242.63 38.663 242.877 38.428C243.253 38.0011 243.441 37.2236 243.441 36.0955H244.122V42.7576H243.441C243.441 41.6295 243.253 40.8418 242.872 40.3997C242.63 40.1588 242.337 39.9743 242.016 39.8592C241.695 39.7442 241.352 39.7014 241.012 39.734C240.371 39.734 239.919 39.734 239.655 39.7696V47.7581C240.717 47.8445 241.774 47.8851 242.816 47.8851C243.251 47.8895 243.685 47.8503 244.112 47.7682C244.457 47.6978 244.786 47.5634 245.082 47.3719C245.634 47.02 246.055 46.497 246.281 45.8829C246.424 45.534 246.543 45.1758 246.637 44.8107C246.729 44.4549 246.825 44.0128 246.922 43.4894H247.481L247.344 48.5712L234.553 48.5915Z" fill="#39312A"/>
<path d="M264.647 48.5915V48.0172L266.563 47.8902V31.527L264.647 31.405V30.8308H271.665V31.405L269.749 31.527V47.8902L271.665 48.0172V48.5915H264.647Z" fill="#39312A"/>
<path d="M288.79 36.6595L289.176 30.8206H300.727V31.4812L292.129 47.9461L296.87 48.0172H296.916C297.377 48.0177 297.832 47.9024 298.237 47.6818C298.635 47.4601 298.981 47.1571 299.254 46.7925C299.552 46.3726 299.79 45.9123 299.96 45.4255C300.157 44.894 300.315 44.3488 300.433 43.7943C300.544 43.2861 300.641 42.656 300.727 41.9852H301.286L300.9 48.5915H288.831V47.9054L297.876 31.4406L293.684 31.5168C293.127 31.4886 292.571 31.5889 292.059 31.8101C291.547 32.0313 291.093 32.3674 290.731 32.7923C290.076 33.6156 289.619 34.9114 289.354 36.6697L288.79 36.6595Z" fill="#39312A"/>
<path d="M318.325 48.5915V48.0172L320.241 47.8902V31.527L318.325 31.405V30.8308H330.583L330.71 35.9125H330.201C330.1 35.3485 329.993 34.8962 329.881 34.4744C329.764 34.0624 329.604 33.6639 329.404 33.2853C329.226 32.9242 328.979 32.6014 328.677 32.335C328.36 32.0751 327.996 31.8785 327.605 31.7557C327.112 31.5977 326.597 31.5222 326.08 31.5321C325.375 31.5321 324.491 31.5727 323.427 31.654V39.0327C323.676 39.0327 324.129 39.0683 324.784 39.0683C325.123 39.1022 325.465 39.0625 325.787 38.952C326.109 38.8415 326.403 38.6627 326.649 38.428C327.025 38.0011 327.213 37.2236 327.213 36.0955H327.894V42.7576H327.213C327.213 41.6295 327.02 40.8418 326.644 40.3997C326.402 40.1588 326.11 39.9743 325.789 39.8592C325.467 39.7442 325.124 39.7014 324.784 39.734C324.144 39.734 323.692 39.734 323.427 39.7696V47.7581C324.488 47.8428 325.541 47.8851 326.588 47.8851C327.023 47.8892 327.457 47.8501 327.884 47.7682C328.23 47.6978 328.559 47.5634 328.855 47.3719C329.116 47.2025 329.351 46.9953 329.551 46.757C329.764 46.4935 329.936 46.1987 330.059 45.8829C330.202 45.534 330.321 45.1758 330.415 44.8107C330.506 44.4549 330.603 44.0128 330.699 43.4894H331.238L331.101 48.5712L318.325 48.5915Z" fill="#39312A"/>
<path d="M348.419 48.5916V48.0173L350.335 47.8903V31.5271L348.419 31.4051V30.8309H355.026C355.863 30.8236 356.7 30.9036 357.521 31.0697C358.22 31.2109 358.893 31.4631 359.513 31.8167C360.082 32.1416 360.551 32.6161 360.87 33.1888C361.199 33.8148 361.363 34.5143 361.347 35.2215C361.381 35.8473 361.27 36.4724 361.022 37.048C360.774 37.6236 360.397 38.1342 359.919 38.5399C358.795 39.3974 357.454 39.9252 356.047 40.0644C356.666 40.0597 357.28 40.1735 357.856 40.3998C358.32 40.5808 358.737 40.8639 359.076 41.2281C359.421 41.6221 359.713 42.0594 359.945 42.529C360.123 42.8949 360.382 43.4488 360.722 44.2009C361.026 44.8839 361.365 45.5505 361.739 46.1981C361.954 46.6203 362.24 47.0034 362.582 47.3313C362.792 47.5357 363.041 47.6963 363.314 47.8039C363.538 47.8638 363.768 47.8929 364 47.8903V48.5763H361.932C361.433 48.588 360.933 48.5471 360.443 48.4543C360.038 48.3586 359.663 48.1649 359.35 47.8903C358.952 47.5438 358.626 47.1225 358.39 46.6503C358.105 46.1252 357.622 45.0242 356.941 43.3472C356.845 43.0982 356.703 42.778 356.515 42.3817C356.366 42.0722 356.196 41.7734 356.006 41.4873C355.85 41.2636 355.681 41.0497 355.498 40.847C355.344 40.6479 355.148 40.4849 354.924 40.3693C354.734 40.2723 354.523 40.2217 354.309 40.2219C353.943 40.2219 353.669 40.2219 353.476 40.2219V47.8445L355.392 47.9716V48.5458L348.419 48.5916ZM353.501 39.541C353.593 39.541 353.76 39.541 354.009 39.541C355.49 39.541 356.53 39.1819 357.13 38.4636C357.729 37.7454 358.029 36.6715 358.029 35.2418C358.045 34.6239 357.959 34.0076 357.775 33.4175C357.641 32.9733 357.39 32.5732 357.048 32.2588C356.745 31.9922 356.388 31.793 356.001 31.6744C355.577 31.5526 355.137 31.4944 354.695 31.5017C354.295 31.5061 353.896 31.5401 353.501 31.6033V39.541Z" fill="#39312A"/>
<path d="M66.8351 45.2985C66.407 44.0681 65.713 42.9473 64.8024 42.0157C63.7191 40.9307 62.4913 40.0005 61.1537 39.2512C59.6596 38.3806 57.8319 37.4506 55.6705 36.4614C54.1236 35.8181 52.6299 35.0535 51.2036 34.1746C50.2673 33.617 49.4123 32.933 48.6628 32.1419C48.6069 32.0758 48.5713 32.0098 48.5205 31.9437C49.1575 31.7972 49.7341 31.4584 50.172 30.9731C50.8387 30.2378 51.2018 29.2772 51.1884 28.2848C51.1785 27.4421 50.9925 26.6108 50.6425 25.8442C50.2924 25.0776 49.786 24.3926 49.1557 23.8332C49.1913 23.8027 49.2167 23.7621 49.2573 23.7265C49.9629 23.1396 50.7783 22.6991 51.6559 22.4307C52.7466 22.1125 53.8789 21.96 55.0149 21.9784C56.0043 21.9629 56.9921 22.0652 57.9573 22.2833C58.6802 22.4495 59.3837 22.6914 60.056 23.0049C60.5307 23.2231 60.9762 23.4996 61.3824 23.8282C61.5995 24.0151 61.8049 24.2154 61.9972 24.4278V24.5345C61.4567 24.5317 60.9194 24.6175 60.4067 24.7886C59.932 24.9456 59.4944 25.1981 59.121 25.5305C58.7484 25.8719 58.4537 26.2897 58.2571 26.7552C58.0361 27.2809 57.9271 27.8468 57.9369 28.417C57.9315 28.9384 58.0264 29.4559 58.2164 29.9415C58.3968 30.392 58.6684 30.8003 59.0143 31.1408C59.3703 31.4829 59.7898 31.7522 60.2491 31.9335C60.7545 32.1363 61.2952 32.2365 61.8397 32.2283C62.4224 32.2382 63.0006 32.1257 63.537 31.898C64.009 31.6927 64.4343 31.3936 64.7871 31.0188C65.1274 30.6467 65.3885 30.2093 65.5545 29.7331C65.7315 29.2444 65.8209 28.7284 65.8187 28.2086C65.8202 27.2007 65.5944 26.2054 65.1581 25.2968C64.6919 24.339 64.0101 23.5023 63.166 22.8525C62.16 22.0907 61.0234 21.519 59.8121 21.1653C58.2648 20.7117 56.6576 20.4958 55.0454 20.525C53.3234 20.4956 51.6108 20.785 49.9942 21.3788C49.1405 21.7009 48.3285 22.124 47.5753 22.639C45.5388 21.2879 43.1434 20.5797 40.6997 20.6063C38.4657 20.5809 36.2486 20.9953 34.1747 21.8259C32.3097 22.5662 30.6127 23.674 29.1845 25.0833C27.8138 26.4739 26.6639 28.066 25.7746 29.8043C24.8552 31.5581 24.1717 33.4257 23.7419 35.3586C23.3595 37.0141 23.1887 38.7114 23.2337 40.4099C23.1887 42.1083 23.3595 43.8057 23.7419 45.4611C24.1726 47.3938 24.856 49.2613 25.7746 51.0155C26.664 52.7522 27.8139 54.3425 29.1845 55.7313C30.6145 57.1556 32.3193 58.2742 34.195 59.0192C36.2679 59.8539 38.4855 60.2701 40.72 60.2439C42.7848 60.2664 44.8222 59.7702 46.6453 58.8007C47.4259 59.1657 48.237 59.4616 49.0693 59.6849C50.9977 60.1567 52.9793 60.3754 54.9641 60.3354C56.8452 60.3695 58.7154 60.0417 60.4727 59.3698C61.9212 58.8169 63.2459 57.9827 64.3704 56.9154C65.3768 55.9478 66.1681 54.779 66.6928 53.4852C67.195 52.2698 67.4573 50.9686 67.4652 49.6536C67.4959 48.1771 67.283 46.7057 66.8351 45.2985ZM46.4217 48.7693C45.8342 48.76 45.2511 48.8724 44.7092 49.0996C44.2252 49.3082 43.7905 49.6164 43.4337 50.0042C43.0854 50.3905 42.8191 50.8434 42.6511 51.3356C42.4705 51.8603 42.3811 52.412 42.3868 52.9669C42.4592 53.9406 42.7442 54.8867 43.2218 55.7384C43.6995 56.5901 44.3581 57.3266 45.1513 57.8961C43.9177 58.452 42.5758 58.7262 41.2231 58.6991C38.0047 58.6991 35.3605 57.0238 33.2905 53.6732C31.2205 50.3227 30.1856 45.9049 30.1856 40.42C30.1856 34.925 31.2205 30.5039 33.2905 27.1567C35.3605 23.8095 38.0047 22.1342 41.2231 22.1308C42.6858 22.0891 44.1362 22.4085 45.446 23.0608C45.7967 23.2488 46.0914 23.4267 46.3658 23.6046L46.2845 23.6706C45.2853 24.6253 44.499 25.7804 43.9774 27.0601C43.4473 28.3689 43.1814 29.7695 43.1948 31.1814C43.1917 32.3132 43.3162 33.4417 43.5658 34.5455C43.8222 35.6583 44.271 36.7177 44.8921 37.6759C45.6157 38.7624 46.5117 39.7236 47.5448 40.5217C48.8669 41.53 50.3179 42.3572 51.8592 42.9812C54.2307 44.045 56.1532 44.9987 57.6269 45.8423C58.8581 46.5144 60.0191 47.3077 61.0927 48.2103C61.8097 48.8015 62.3889 49.542 62.79 50.3802C63.0937 51.1059 63.2476 51.8855 63.2423 52.6721C63.2528 53.5911 62.9833 54.4915 62.4698 55.2536C61.9419 56.032 61.2606 56.6943 60.4676 57.1999C59.5981 57.7511 58.6484 58.1643 57.6524 58.4246C56.6182 58.7026 55.5522 58.8444 54.4814 58.8464C53.357 58.8617 52.2337 58.7681 51.1274 58.5669C50.3135 58.4168 49.5143 58.1958 48.739 57.9063C48.5764 57.8453 48.4493 57.7793 48.307 57.7183C50.2127 56.2497 51.0461 54.532 51.0461 52.5603C51.0623 51.569 50.6987 50.609 50.0297 49.8772C49.6864 49.5027 49.2649 49.2084 48.795 49.0151C48.3251 48.8219 47.8185 48.7345 47.311 48.7592L46.4217 48.7693Z" fill="#CA9F68"/>
<path d="M20.8351 76.3676C19.5393 75.9611 18.0199 75.5037 17.4558 75.3513L16.4394 75.0565L18.1672 74.7567C19.1226 74.5941 20.9266 74.2486 22.1818 73.9894C25.6831 73.2779 29.1895 73.4812 31.456 74.5433L32.0607 74.8228L31.3035 75.5037C29.3013 77.2671 24.9005 77.633 20.8351 76.3676ZM29.901 73.3491C27.3601 72.4191 25.5561 70.3 24.5956 67.1392C24.2922 66.1583 24.0461 65.1606 23.8588 64.1511L23.7114 63.1348L26.8824 66.3464C30.1551 69.6597 30.8208 70.6558 31.0291 72.5055C31.1307 73.5574 30.9122 73.7251 29.8857 73.3491H29.901ZM16.8206 71.1334C14.1069 70.2695 13.4056 69.9138 10.8089 68.0844C9.92891 67.4944 9.08077 66.8583 8.26799 66.1787C8.62371 65.9196 17.1153 66.8648 17.8623 67.251L19.7629 68.2064C20.6333 68.6485 21.4543 69.1817 22.2123 69.7969L23.1321 70.6253L22.2834 70.9861C20.5205 71.5933 18.6137 71.6447 16.8206 71.1334ZM21.2366 68.1352C19.7578 66.9918 18.4264 65.0455 18.1164 63.5617C17.9262 62.103 17.8616 60.6306 17.9233 59.1609L17.9944 56.0254L18.8583 57.7126C19.3309 58.6425 19.9916 59.8164 20.332 60.3246C21.9785 62.7892 22.8983 66.133 22.446 68.0183L22.2326 68.9076L21.2366 68.1352ZM12.3131 63.5108C11.5446 63.3373 10.7955 63.087 10.0771 62.7638C8.2022 61.6076 6.54282 60.1339 5.17321 58.4088C4.59898 57.6313 3.81131 56.6352 3.42001 56.2033C2.62218 55.3191 2.673 55.2784 3.92819 55.7663C4.64955 56.0233 5.38826 56.2288 6.13874 56.3812C8.15637 56.9216 10.0626 57.8145 11.7693 59.0186C13.123 60.118 14.2781 61.4415 15.1842 62.9315C15.5095 63.5667 15.4993 63.6226 15.1182 63.6277C14.8192 63.6375 14.5217 63.6732 14.2289 63.7344C13.583 63.749 12.9382 63.6738 12.3131 63.5108ZM14.2848 60.4618C13.639 59.6619 13.2242 58.7007 13.0855 57.6821C12.8873 56.7838 12.7598 55.8714 12.7044 54.9532C12.8965 52.7029 13.3624 50.4844 14.0917 48.3469C14.5389 47.3306 14.549 47.3306 14.5693 48.0623C14.7741 49.4436 15.054 50.8126 15.4078 52.1633C15.8459 53.7869 16.1216 55.4501 16.2311 57.1282C16.2311 58.6933 15.7229 61.0665 15.3062 61.3206C15.1842 61.3968 14.737 61.0208 14.2848 60.4872V60.4618ZM8.01899 53.9622C6.22497 53.2577 4.69301 52.0151 3.63344 50.405C3.18117 49.7037 2.17499 47.8235 1.40256 46.2278L0 43.3516L1.10782 44.002C1.71763 44.3628 2.83561 45.0946 3.59279 45.6384C4.34997 46.1821 5.34091 46.8478 5.79827 47.1273C7.50065 48.1894 9.43679 51.2791 9.78235 53.4998C9.95513 54.6178 9.8789 54.6381 8.01899 53.9622ZM9.66039 50.964C9.03141 49.0182 9.03141 46.9236 9.66039 44.9777C10.1686 43.3058 13.1871 38.2851 13.177 39.1388C13.1363 41.9439 12.6688 47.5745 12.3944 48.4536C11.9319 49.9782 11.2205 51.3451 10.6462 51.8787C10.1635 52.3107 10.1635 52.2954 9.65531 50.964H9.66039ZM5.35107 43.2144C3.19642 41.761 1.98188 39.3065 1.28568 35.0124C1.16188 34.1201 0.992266 33.2347 0.777507 32.3598C0.645381 32.004 0.807997 32.0701 1.45846 32.624C1.92598 33.0204 2.56628 33.5286 2.88135 33.7572C3.8977 34.4585 6.39791 38.3308 6.86035 39.8198C7.36852 41.5323 7.44983 44.0833 6.97215 44.0833C6.39144 43.8762 5.84502 43.5833 5.35107 43.2144ZM7.86653 41.1054C7.76477 40.1545 7.84059 39.193 8.09013 38.2698C8.74059 35.6375 9.4622 34.4433 11.7541 32.1717C12.4166 31.4736 13.1245 30.82 13.8732 30.2153C13.8732 30.2813 13.7055 30.9013 13.4971 31.5873C12.3537 35.3986 11.6372 37.4872 11.2103 38.2546C10.5599 39.4285 8.4052 42.3708 8.19177 42.3708C7.98773 41.9795 7.87645 41.5466 7.86653 41.1054ZM6.19972 33.2542C4.31948 32.0854 3.55722 29.4784 3.8672 25.164C3.96884 23.6954 4.05015 22.1455 4.05523 21.7237C4.05523 20.9817 4.08572 20.997 4.86323 22.3284C5.20426 22.9308 5.58275 23.5113 5.99645 24.0664C6.47922 24.6152 7.40918 26.8969 7.74965 28.3655C8.03932 29.8347 7.95545 31.3532 7.50573 32.7815C7.22624 33.8487 7.1805 33.864 6.19972 33.2542ZM8.4611 31.6432C8.4611 29.6105 9.6299 27.3695 11.6473 25.5451C12.5011 24.7778 16.6275 22.3691 17.0899 22.3691C17.161 22.3691 16.8815 22.7756 16.475 23.2736C16.0685 23.7716 15.0928 25.1589 14.3153 26.3531C12.7552 28.7416 11.2154 30.4846 9.71121 31.5568C8.51192 32.4157 8.4611 32.4207 8.4611 31.6432ZM8.766 23.5125C7.24148 20.8598 7.30246 19.1422 9.10648 13.6844L9.77727 11.6517L10.57 14.1468C11.0972 15.5277 11.3676 16.9933 11.3679 18.4714C11.3679 20.5041 10.7276 22.613 9.77727 23.7411L9.2691 24.3662L8.766 23.5125ZM11.1798 22.552C11.9929 19.9298 15.3418 17.4245 19.3106 16.4539C21.6533 15.8898 21.8159 15.9762 20.4235 17.0485C19.7375 17.5567 18.8024 18.3697 18.34 18.8118C16.3683 20.7022 12.5214 23.0754 11.4238 23.0805C11.1087 23.0957 11.0528 22.9789 11.1798 22.552ZM13.2125 15.0717C12.8531 13.3659 13.0306 11.5907 13.7207 9.98994C14.3324 8.88983 15.0398 7.84574 15.8347 6.86975L17.3592 4.9895L17.5218 6.56484C17.8826 10.0204 17.0543 12.8916 15.1436 14.8379C14.7127 15.3292 14.2129 15.7554 13.6597 16.1033C13.5276 16.1033 13.3243 15.6408 13.2024 15.0869L13.2125 15.0717ZM16.7342 14.1519C18.7669 12.2005 20.7589 11.5094 24.4228 11.5195C27.0145 11.5195 27.4719 11.7736 25.9474 12.3529C25.3223 12.5918 23.9655 13.2168 22.9288 13.7453C21.0104 14.7503 18.8887 15.3063 16.724 15.3715H15.4739L16.7342 14.1519ZM23.2337 10.0865C22.879 10.0334 22.5355 9.92174 22.2174 9.75618C21.9531 9.48685 22.5985 8.93294 23.8537 8.36886C25.7339 7.52021 28.6559 7.57611 31.3797 8.50607C32.513 8.89228 33.4379 9.29882 33.4379 9.40045C33.4379 9.50209 33.0415 9.59356 32.5587 9.59864C32.0759 9.60372 30.526 9.75618 29.0828 9.95436C26.298 10.3203 24.6566 10.3609 23.2337 10.0763V10.0865ZM19.895 9.21751C19.3868 7.11367 20.9114 4.50166 23.9045 2.43847C24.6668 1.9303 25.5205 1.35098 25.8 1.20361L26.3082 0.929193L25.8915 2.60108C25.302 4.95393 24.6363 6.23453 23.2693 7.68283C22.3038 8.69917 20.6217 9.87306 20.1542 9.87306C20.0932 9.82732 19.9763 9.54274 19.895 9.21751ZM27.4414 4.93869C27.9496 2.60617 29.1438 1.64064 32.8433 0.664942C33.7529 0.4261 34.688 0.156768 34.9319 0.0449697C35.7551 -0.300589 34.6829 1.33065 32.8484 3.21089C31.0901 5.01491 29.7079 5.72636 27.9547 5.72636C27.294 5.72636 27.2686 5.6857 27.4414 4.93869Z" fill="#CA9F68"/>
<path d="M60.1881 75.4944L59.4564 74.8134L60.0611 74.5339C62.3275 73.4718 65.8339 73.2686 69.3353 73.98C70.5905 74.2392 72.3843 74.5847 73.3498 74.7474L75.0776 75.0472L74.0613 75.3419C73.4972 75.5045 71.9778 75.9619 70.6819 76.3583C66.5708 77.6338 62.17 77.2679 60.1881 75.4944ZM60.4575 72.4809C60.6658 70.6311 61.3315 69.6351 64.6042 66.3218L67.7752 63.1102L67.6278 64.1265C67.4404 65.136 67.1944 66.1337 66.891 67.1146C65.9305 70.2856 64.1316 72.3945 61.5856 73.3245C60.5591 73.7259 60.3406 73.5582 60.4727 72.4809H60.4575ZM69.1879 70.9564L68.3392 70.5956L69.259 69.7672C70.017 69.152 70.8381 68.6188 71.7084 68.1767L73.609 67.2213C74.356 66.8351 82.8476 65.8899 83.2033 66.149C82.3906 66.8286 81.5424 67.4647 80.6625 68.0547C78.0657 69.8943 77.3644 70.25 74.6508 71.1037C72.8597 71.6216 70.9529 71.5773 69.1879 70.9767V70.9564ZM69.2387 68.8881L69.0253 67.9988C68.573 66.1135 69.4928 62.7697 71.1393 60.305C71.4798 59.7969 72.1556 58.623 72.613 57.693L73.4769 56.0059L73.548 59.1413C73.6097 60.6111 73.5451 62.0834 73.3549 63.5421C73.0449 65.026 71.7135 66.9723 70.2347 68.1157L69.2387 68.8881ZM77.2425 63.7352C76.9497 63.674 76.6521 63.6382 76.3531 63.6285C75.972 63.6285 75.9619 63.5675 76.2871 62.9323C77.1932 61.4423 78.3483 60.1188 79.702 59.0194C81.4103 57.8147 83.3183 56.9218 85.3377 56.3819C86.0881 56.2296 86.8269 56.0241 87.5482 55.767C88.7983 55.2589 88.8492 55.3199 88.0564 56.2041C87.6651 56.636 86.8774 57.632 86.3032 58.4096C84.9336 60.1347 83.2742 61.6084 81.3993 62.7646C80.6809 63.0878 79.9318 63.338 79.1634 63.5116C78.5365 63.675 77.89 63.7503 77.2425 63.7352ZM76.1702 61.3214C75.7637 61.0673 75.2403 58.6941 75.2453 57.129C75.3548 55.4508 75.6305 53.7877 76.0686 52.1641C76.4224 50.8134 76.7023 49.4444 76.9071 48.0631C76.9071 47.3517 76.9375 47.3517 77.3847 48.3477C78.1123 50.4854 78.5764 52.7039 78.767 54.954C78.7109 55.8791 78.5817 56.7984 78.3808 57.7032C78.242 58.7218 77.8273 59.6831 77.1815 60.4829C76.7343 61.0216 76.2871 61.3976 76.1702 61.3214ZM81.689 53.5006C82.0345 51.2799 83.9707 48.1902 85.6731 47.1281C86.1304 46.8486 87.1214 46.1778 87.8785 45.6391C88.6357 45.1005 89.7537 44.3636 90.3635 44.0028L91.4713 43.3524L90.0688 46.254C89.2963 47.8497 88.2902 49.7299 87.8379 50.4312C86.7783 52.0413 85.2464 53.2839 83.4523 53.9884C81.5924 54.6389 81.5162 54.6186 81.689 53.5006ZM80.8454 51.9049C80.2712 51.3968 79.5597 49.9789 79.0973 48.4798C78.8229 47.6007 78.3554 41.9701 78.3147 39.165C78.3147 38.3113 81.3282 43.332 81.8313 45.0039C82.4602 46.9498 82.4602 49.0443 81.8313 50.9902C81.3078 52.2962 81.3078 52.3115 80.8454 51.9049ZM84.5093 44.1095C84.0317 44.1095 84.0977 41.5687 84.6211 39.846C85.0836 38.3214 87.6092 34.4847 88.6002 33.7834C88.9152 33.5548 89.5555 33.0466 90.023 32.6502C90.6735 32.0963 90.8361 32.0302 90.704 32.386C90.4892 33.2609 90.3196 34.1463 90.1958 35.0386C89.5047 39.3327 88.2902 41.7872 86.1304 43.2406C85.6349 43.6006 85.0886 43.8849 84.5093 44.0841V44.1095ZM83.2796 42.4224C83.0661 42.4224 80.9115 39.4801 80.261 38.3062C79.8341 37.5388 79.1176 35.4503 77.9742 31.6389C77.7659 30.9529 77.5982 30.3329 77.5982 30.2669C78.3469 30.8717 79.0548 31.5252 79.7173 32.2233C82.0091 34.4695 82.7307 35.6637 83.3812 38.3214C83.6307 39.2446 83.7066 40.2062 83.6048 41.157C83.591 41.5896 83.4799 42.0134 83.2796 42.397V42.4224ZM83.9656 32.8077C83.5159 31.3794 83.432 29.8609 83.7217 28.3917C84.0622 26.9231 84.9921 24.6414 85.4749 24.0926C85.8886 23.5375 86.2671 22.957 86.6081 22.3546C87.4059 20.9978 87.4059 20.9825 87.4059 21.7245C87.4059 22.1463 87.4923 23.6962 87.594 25.1648C87.9141 29.4792 87.1519 32.0861 85.2716 33.2549C84.2908 33.8647 84.2451 33.8495 83.9656 32.7823V32.8077ZM81.7601 31.578C80.2356 30.5057 78.7111 28.7627 77.1561 26.3743C76.3786 25.1801 75.4029 23.7927 74.9963 23.2947C74.5898 22.7967 74.3103 22.3902 74.3814 22.3902C74.8439 22.3902 78.955 24.7989 79.824 25.5663C81.8567 27.3906 83.0102 29.6317 83.0102 31.6644C83.0102 32.4215 82.9594 32.4165 81.7601 31.578ZM82.2226 24.3873L81.7144 23.7622C80.7641 22.6341 80.1289 20.5201 80.1238 18.4925C80.124 17.0144 80.3944 15.5488 80.9216 14.1679L81.7144 11.6982L82.3852 13.7309C84.1892 19.1887 84.2502 20.9063 82.7257 23.559L82.2226 24.3873ZM80.0272 23.1118C78.9296 23.1118 75.0827 20.7335 73.111 18.8431C72.6486 18.401 71.7135 17.6083 71.0275 17.0798C69.6351 16.0075 69.7977 15.9211 72.1404 16.4852C76.1245 17.4456 79.4733 19.9509 80.2712 22.5833C80.4185 22.9797 80.3626 23.0965 80.0272 23.0915V23.1118ZM78.2588 15.0725C78.1368 15.6365 77.9336 16.0888 77.8014 16.0888C77.2483 15.7409 76.7485 15.3147 76.3176 14.8235C74.4068 12.8772 73.5785 10.006 73.9393 6.55039L74.1019 4.97505L75.6265 6.8553C76.4254 7.83412 77.1362 8.88165 77.7506 9.98565C78.4407 11.5864 78.6182 13.3616 78.2588 15.0674V15.0725ZM75.9974 15.3774H74.7372C72.5724 15.3122 70.4508 14.7561 68.5324 13.7512C67.516 13.243 66.1388 12.5977 65.5138 12.3588C63.9893 11.7795 64.4568 11.5305 67.0383 11.5254C70.7023 11.5254 72.7146 12.2064 74.727 14.1578L75.9974 15.3774ZM62.4089 9.945C60.986 9.74681 59.4208 9.58927 58.9329 9.58927C58.4451 9.58927 58.0538 9.4978 58.0538 9.39109C58.0538 9.28437 58.9787 8.88291 60.0865 8.4967C62.8103 7.56674 65.7323 7.51084 67.6126 8.35949C68.8677 8.92357 69.5131 9.47748 69.2489 9.74681C68.9307 9.91237 68.5873 10.024 68.2325 10.0771C66.8147 10.3617 65.1733 10.321 62.4089 9.945ZM71.3222 9.82812C70.8547 9.82812 69.1727 8.64407 68.2071 7.63789C66.8401 6.215 66.1744 4.9344 65.5849 2.58155L65.1682 0.909661L65.6764 1.18407C65.9559 1.33145 66.8096 1.89044 67.5719 2.41894C70.5549 4.48212 72.0997 7.09414 71.5814 9.19798C71.495 9.54354 71.3781 9.82812 71.3222 9.82812ZM63.5218 5.72715C61.7686 5.72715 60.3863 5.01571 58.628 3.21169C56.8698 1.40767 55.7213 -0.299793 56.5445 0.0457653C56.7884 0.1474 57.7235 0.426895 58.6331 0.665737C62.3326 1.64143 63.5472 2.60696 64.035 4.93948C64.2027 5.6865 64.1773 5.72715 63.5218 5.72715Z" fill="#CA9F68"/>
<path d="M35.3689 73.5124L36.5072 73.1973H36.6495V76.8511H37.0459V76.968H35.6128V76.8511H36.0092V73.5073L35.4045 73.6496L35.3689 73.5124Z" fill="#CA9F68"/>
<path d="M41.4009 74.4017C41.4016 74.2954 41.4153 74.1896 41.4416 74.0866C41.4683 73.9743 41.5111 73.8665 41.5686 73.7664C41.6288 73.6582 41.706 73.5604 41.7973 73.4768C41.8983 73.3886 42.0157 73.3212 42.1429 73.2786C42.2962 73.224 42.4578 73.1965 42.6205 73.1973C42.7618 73.1957 42.9024 73.2163 43.0372 73.2583C43.1475 73.2935 43.252 73.3449 43.3472 73.4107C43.4311 73.478 43.5032 73.5587 43.5607 73.6496C43.6186 73.738 43.6647 73.8337 43.6979 73.9341C43.7357 74.0396 43.7629 74.1485 43.7792 74.2594C43.7792 74.3813 43.8097 74.488 43.8147 74.5846C43.8198 74.6812 43.8147 74.7828 43.8147 74.9047C43.8493 75.4686 43.739 76.0318 43.4946 76.5411C43.3932 76.7178 43.2441 76.8625 43.0644 76.9587C42.8847 77.0548 42.6816 77.0985 42.4782 77.0848C42.3427 77.0874 42.2074 77.0703 42.0768 77.034C41.9801 77.0056 41.8891 76.9609 41.8075 76.9019C41.7474 76.8512 41.6959 76.7912 41.655 76.724C41.5878 76.6254 41.554 76.5079 41.5585 76.3886C41.5561 76.2893 41.5884 76.1922 41.6499 76.1142C41.6849 76.0738 41.7288 76.0421 41.7783 76.0218C41.8277 76.0015 41.8812 75.9931 41.9345 75.9973C41.9789 75.9954 42.0232 76.003 42.0644 76.0196C42.1056 76.0363 42.1428 76.0616 42.1733 76.0939C42.2063 76.1271 42.2319 76.1669 42.2485 76.2107C42.2651 76.2545 42.2724 76.3012 42.2699 76.348C42.2717 76.3939 42.2641 76.4397 42.2475 76.4825C42.2309 76.5253 42.2056 76.5643 42.1733 76.597C42.109 76.6673 42.0195 76.7093 41.9243 76.7139C41.9637 76.7841 42.0267 76.8381 42.1022 76.8663C42.2057 76.9135 42.3188 76.9361 42.4325 76.9324C42.5098 76.9336 42.5869 76.9234 42.6612 76.9019C42.727 76.8845 42.7868 76.8493 42.834 76.8002C42.8779 76.7539 42.9186 76.7047 42.9559 76.6529C42.9982 76.588 43.0276 76.5155 43.0423 76.4394C43.0423 76.348 43.083 76.2667 43.0931 76.1955C43.0981 76.0973 43.0981 75.999 43.0931 75.9008C43.0931 75.7686 43.0931 75.667 43.0931 75.5857C43.0931 75.5044 43.0931 75.3875 43.0931 75.23C43.0233 75.3372 42.927 75.4247 42.8136 75.4841C42.6874 75.5465 42.548 75.5779 42.4071 75.5755C42.2332 75.5812 42.06 75.55 41.8989 75.4841C41.7662 75.4264 41.6507 75.3354 41.5635 75.2198C41.4831 75.1056 41.423 74.9784 41.3857 74.8438C41.3702 74.6964 41.3753 74.5476 41.4009 74.4017ZM42.092 74.3508C42.092 74.4576 42.092 74.5439 42.092 74.6151C42.0874 74.6963 42.0874 74.7778 42.092 74.859C42.0983 74.9356 42.1154 75.0109 42.1429 75.0826C42.1656 75.1414 42.1945 75.1977 42.2292 75.2503C42.2642 75.3024 42.3137 75.343 42.3715 75.3672C42.4358 75.3946 42.505 75.4084 42.5748 75.4078C42.703 75.4004 42.8255 75.3526 42.925 75.2714C43.0245 75.1902 43.0958 75.0797 43.1287 74.9556V74.7726C43.1304 74.5365 43.1169 74.3006 43.0881 74.0663C43.0732 73.9141 43.0355 73.7651 42.9763 73.6242C42.941 73.5418 42.887 73.4687 42.8187 73.4107C42.7609 73.3696 42.6914 73.3483 42.6205 73.3497C42.5308 73.3479 42.4426 73.3737 42.3681 73.4237C42.2935 73.4737 42.2362 73.5455 42.2038 73.6292C42.1129 73.8583 42.0746 74.105 42.092 74.3508Z" fill="#CA9F68"/>
<path d="M53.4599 75.1945C53.4585 74.9884 53.4755 74.7826 53.5107 74.5796C53.549 74.3933 53.6052 74.2113 53.6784 74.0358C53.748 73.8748 53.8423 73.7256 53.9579 73.5937C54.0675 73.4696 54.2028 73.3708 54.3543 73.3041C54.5136 73.231 54.6872 73.1945 54.8625 73.1973C55.0656 73.1877 55.2678 73.2291 55.4507 73.3179C55.6336 73.4067 55.7913 73.54 55.9093 73.7055C56.1771 74.1074 56.3073 74.5853 56.2803 75.0674C56.281 75.2665 56.2657 75.4653 56.2345 75.662C56.2058 75.8498 56.1564 76.0339 56.0872 76.2108C56.0237 76.3752 55.9364 76.5293 55.828 76.6682C55.7183 76.7982 55.5812 76.9023 55.4266 76.9731C55.2553 77.0545 55.0673 77.0946 54.8777 77.09C54.5935 77.1007 54.3134 77.0186 54.0799 76.8562C53.8622 76.6891 53.6994 76.4609 53.6124 76.2007C53.5032 75.8767 53.4516 75.5362 53.4599 75.1945ZM54.1663 75.103C54.161 75.4246 54.1848 75.7461 54.2374 76.0634C54.2715 76.2904 54.351 76.5082 54.4712 76.7037C54.5088 76.7741 54.5643 76.8332 54.6321 76.8752C54.7 76.9171 54.7777 76.9404 54.8574 76.9426C55.0861 76.9426 55.2639 76.7851 55.3656 76.4649C55.5056 76.0233 55.5675 75.5607 55.5485 75.0979C55.5485 73.9291 55.3148 73.3447 54.8523 73.3447C54.7797 73.3441 54.7081 73.3615 54.644 73.3955C54.5664 73.443 54.5004 73.5073 54.4509 73.5836C54.3806 73.685 54.3258 73.7963 54.2882 73.9139C54.2403 74.0804 54.2047 74.2503 54.1815 74.422C54.1626 74.6485 54.1575 74.8759 54.1663 75.103Z" fill="#CA9F68"/>
<path d="M47.2602 74.1374C47.2607 74.0585 47.2709 73.98 47.2907 73.9037C47.3198 73.8155 47.3608 73.7317 47.4127 73.6547C47.4701 73.5667 47.5423 73.4893 47.6261 73.426C47.7294 73.3558 47.8424 73.3011 47.9615 73.2634C48.1134 73.2194 48.2708 73.1972 48.429 73.1973C48.7237 73.1846 49.014 73.2724 49.2522 73.4463C49.3528 73.5249 49.4334 73.6262 49.4872 73.7419C49.5411 73.8576 49.5668 73.9845 49.5622 74.112C49.562 74.358 49.4934 74.599 49.364 74.8082C49.1614 75.1092 48.9225 75.3839 48.6526 75.6264C48.0479 76.2057 47.7074 76.5309 47.6362 76.597H48.7085C48.8083 76.6034 48.9085 76.6034 49.0083 76.597C49.0803 76.5909 49.1517 76.579 49.2218 76.5614C49.2797 76.5476 49.3326 76.5177 49.3742 76.475C49.4093 76.4345 49.4369 76.3881 49.4555 76.3378C49.4793 76.269 49.4929 76.1971 49.4962 76.1244H49.6435V77.1102H47.3263V76.7291C47.5312 76.5483 47.7262 76.3566 47.9107 76.1549C48.0909 75.9644 48.2605 75.7642 48.4188 75.5552C48.514 75.4248 48.599 75.2872 48.6729 75.1436C48.735 75.0195 48.7811 74.888 48.8101 74.7523C48.8355 74.6503 48.8542 74.5468 48.866 74.4423C48.8716 74.3442 48.8716 74.2458 48.866 74.1476C48.8828 73.9436 48.827 73.7402 48.7085 73.5733C48.6534 73.5111 48.5852 73.4619 48.5087 73.4294C48.4322 73.3969 48.3494 73.3818 48.2664 73.3853C48.1801 73.3856 48.0944 73.3994 48.0123 73.426C47.9413 73.448 47.8756 73.4843 47.8192 73.5327C47.7707 73.5684 47.7279 73.6112 47.6921 73.6597C47.6606 73.6944 47.6379 73.7363 47.6261 73.7817H47.6871C47.739 73.7791 47.7908 73.7878 47.839 73.8071C47.8873 73.8264 47.9308 73.8558 47.9666 73.8935C48.0025 73.9303 48.0306 73.9741 48.0489 74.0222C48.0673 74.0703 48.0756 74.1216 48.0733 74.173C48.0753 74.275 48.037 74.3736 47.9666 74.4474C47.8894 74.5196 47.7877 74.5597 47.682 74.5597C47.5763 74.5597 47.4746 74.5196 47.3974 74.4474C47.3528 74.4093 47.3172 74.3617 47.2935 74.308C47.2697 74.2544 47.2584 74.1961 47.2602 74.1374Z" fill="#CA9F68"/>
</g>
<defs>
<clipPath id="clip0_31_318">
<rect width="364" height="77.1154" fill="white"/>
</clipPath>
</defs>
</svg>
