<svg width="138" height="96" viewBox="0 0 138 96" fill="none" xmlns="http://www.w3.org/2000/svg">
<g clip-path="url(#clip0_22_643)">
<path d="M3.10851 86.4633C2.82861 86.4598 2.54975 86.4979 2.28106 86.5764C2.05875 86.637 1.85064 86.7411 1.66874 86.8825C1.50927 87.0141 1.3843 87.1827 1.30466 87.3735C1.22047 87.5733 1.17823 87.7883 1.18054 88.0051C1.18048 88.1674 1.20276 88.3288 1.24674 88.485C1.30123 88.6654 1.39549 88.8313 1.52256 88.9705C1.70883 89.1694 1.92132 89.342 2.15418 89.4835C2.50689 89.7008 2.87573 89.8907 3.25745 90.0517C3.80909 90.2972 4.24764 90.5288 4.61999 90.744C4.95334 90.929 5.25884 91.1602 5.52743 91.4308C5.75674 91.6644 5.92942 91.9474 6.03218 92.2582C6.14288 92.6067 6.19508 92.9711 6.18664 93.3367C6.1848 93.6631 6.12019 93.9862 5.99632 94.2882C5.8658 94.6095 5.66943 94.8998 5.41986 95.1405C5.1388 95.4047 4.80906 95.6117 4.44899 95.7501C4.00871 95.9164 3.54041 95.996 3.0699 95.9845C2.57664 95.9955 2.08412 95.9407 1.6053 95.8218C1.26467 95.7403 0.94143 95.5983 0.650972 95.4025C0.432171 95.255 0.253884 95.0549 0.132435 94.8206C0.0392794 94.6136 -0.00597511 94.3883 4.20192e-05 94.1614C-0.0010861 94.0225 0.0212955 93.8845 0.0662383 93.7532C0.111923 93.6301 0.183394 93.5181 0.27586 93.4249C0.363055 93.3277 0.470339 93.2505 0.590292 93.1988C0.725708 93.1427 0.871299 93.1155 1.01781 93.1188C1.15293 93.1171 1.28702 93.1424 1.41223 93.1932C1.52575 93.2393 1.62822 93.3088 1.71287 93.3973C1.79625 93.485 1.86182 93.5881 1.90594 93.7007C1.9518 93.8224 1.97516 93.9514 1.9749 94.0814C1.9833 94.2121 1.96295 94.343 1.9153 94.465C1.86765 94.587 1.79384 94.6971 1.69908 94.7875C1.5029 94.9504 1.25332 95.0349 0.998503 95.0247V95.0523C1.05361 95.1075 1.11466 95.1566 1.18054 95.1984C1.29789 95.2753 1.42377 95.3382 1.55566 95.386C1.74944 95.4565 1.9487 95.5109 2.15142 95.5487C2.42438 95.5983 2.70148 95.6213 2.97888 95.6177C3.24534 95.6183 3.51067 95.5831 3.76772 95.5129C4.01591 95.4497 4.25241 95.3473 4.46829 95.2095C4.66526 95.0845 4.83428 94.9202 4.96477 94.7268C5.09429 94.5378 5.16177 94.3132 5.15784 94.0841C5.15873 93.8891 5.12026 93.6958 5.04475 93.5159C4.94579 93.3075 4.80163 93.1238 4.62275 92.9781C4.35526 92.7564 4.06601 92.5623 3.75944 92.3989C3.39168 92.1893 2.91268 91.9521 2.32243 91.6873C1.93965 91.5319 1.57892 91.327 1.2495 91.0777C0.992483 90.8791 0.769792 90.6396 0.590292 90.3689C0.43534 90.1306 0.322453 89.8675 0.256553 89.5911C0.19603 89.3194 0.165508 89.0419 0.165533 88.7636C0.163927 88.4128 0.231407 88.0651 0.364122 87.7403C0.491039 87.4162 0.686778 87.1236 0.937823 86.8825C1.20547 86.6322 1.5206 86.438 1.86457 86.3116C2.26741 86.1652 2.69375 86.0941 3.1223 86.102C3.52237 86.0948 3.92125 86.1478 4.30556 86.2592C4.60401 86.3489 4.88417 86.4908 5.13301 86.6784C5.34292 86.8399 5.5128 87.0475 5.62949 87.2852C5.73631 87.5112 5.79187 87.7579 5.79222 88.0079C5.79271 88.1376 5.7703 88.2665 5.72602 88.3885C5.68407 88.5057 5.6194 88.6135 5.53571 88.7057C5.4487 88.7986 5.34356 88.8728 5.22679 88.9236C5.09265 88.9809 4.94788 89.0091 4.80203 89.0063C4.66691 89.008 4.53282 88.9827 4.40761 88.9319C4.2936 88.8875 4.18954 88.8209 4.10146 88.736C4.0153 88.6516 3.94766 88.5501 3.90287 88.4381C3.85572 88.3188 3.8323 88.1914 3.83391 88.063C3.83103 87.9213 3.85732 87.7805 3.91114 87.6493C3.96034 87.534 4.0337 87.4305 4.12628 87.3459C4.21903 87.2629 4.32797 87.2 4.44623 87.1611C4.57433 87.1186 4.70846 87.0972 4.84341 87.0977V87.0728C4.79426 87.0189 4.74075 86.9691 4.68343 86.9239C4.58415 86.8408 4.47365 86.7721 4.35521 86.7198C4.18847 86.6413 4.01367 86.5812 3.83391 86.5405C3.59589 86.4869 3.35248 86.461 3.10851 86.4633Z" fill="white"/>
<path d="M15.3272 91.21C15.3265 90.7238 15.3801 90.239 15.4872 89.7647C15.5939 89.2848 15.7636 88.8211 15.9919 88.3856C16.2126 87.9539 16.4981 87.5585 16.8387 87.2134C17.1934 86.8627 17.6157 86.5877 18.0799 86.4053C18.5964 86.199 19.1483 86.0959 19.7044 86.1019C20.3528 86.087 20.9889 86.2804 21.5193 86.6535C21.751 86.7936 21.944 86.9893 22.0808 87.2229C22.2176 87.4565 22.2939 87.7206 22.3027 87.9912C22.3088 88.2368 22.221 88.4755 22.0572 88.6587C21.9712 88.7516 21.8659 88.8245 21.7486 88.8721C21.6314 88.9198 21.5051 88.9411 21.3787 88.9345C21.2565 88.939 21.1347 88.9189 21.0205 88.8753C20.9063 88.8317 20.802 88.7655 20.7139 88.6808C20.6288 88.5973 20.5618 88.4971 20.5172 88.3865C20.4726 88.2759 20.4513 88.1573 20.4547 88.0381C20.4485 87.7991 20.5367 87.5672 20.7002 87.3927C20.7768 87.3085 20.8707 87.2418 20.9754 87.1971C21.08 87.1523 21.1931 87.1306 21.307 87.1334H21.4118V87.1086C21.2748 86.9246 21.091 86.7807 20.8794 86.6921C20.5536 86.5293 20.1926 86.4497 19.8286 86.4604C19.0287 86.4604 18.3695 86.8769 17.8565 87.7071C17.3434 88.5373 17.0842 89.6379 17.0842 91.0031C17.0813 91.5584 17.1321 92.1126 17.2359 92.6581C17.3261 93.1496 17.4781 93.6278 17.6882 94.0813C17.8678 94.4838 18.1457 94.8348 18.4964 95.1018C18.8313 95.3521 19.2395 95.4849 19.6576 95.4797C20.2496 95.4924 20.8274 95.2972 21.2904 94.928C21.7612 94.5482 22.1316 94.0585 22.3688 93.5021L22.6805 93.6482C22.0517 95.2057 20.9934 95.9844 19.5059 95.9844C18.9223 95.9926 18.3418 95.8993 17.7903 95.7086C17.3419 95.5584 16.9309 95.3139 16.5849 94.9915C16.2701 94.6817 16.0157 94.316 15.8347 93.913C15.6486 93.5037 15.5179 93.0715 15.4458 92.6277C15.3663 92.1593 15.3266 91.6851 15.3272 91.21V91.21Z" fill="white"/>
<path d="M31.2943 95.5212V95.2151L32.3121 95.1516V86.4716L31.2943 86.4054V86.1021H35.0289V86.4054L34.0111 86.4716V90.4903L37.5637 90.4379V86.4716L36.5459 86.4054V86.1021H40.2694V86.4054L39.2517 86.4716V95.1572L40.2694 95.2206V95.5267H36.5459V95.2206L37.5637 95.1572V90.8875H34.0001V95.1572L35.0179 95.2206V95.5267L31.2943 95.5212Z" fill="white"/>
<path d="M48.5439 86.5432V86.2398H52.2096V86.5432L51.3021 86.6066L53.0591 93.1932H53.0839L55.125 86.0991H55.4201L57.7976 93.1683H57.8225L59.7118 86.6066L58.8209 86.5404V86.237H60.9116V86.5404L60.1283 86.6066L57.4473 95.7886H57.1495L54.7223 88.8932L52.7033 95.7886H52.3778L49.5341 86.6066L48.5439 86.5432Z" fill="white"/>
<path d="M69.3434 95.5212V95.2151L70.3584 95.1516V86.4716L69.3434 86.4054V86.1021H75.8499L75.9161 88.7885H75.6403C75.5979 88.531 75.5417 88.276 75.4721 88.0245C75.4098 87.8066 75.3247 87.5958 75.2183 87.3956C75.1244 87.2034 74.9932 87.0318 74.8322 86.8909C74.6647 86.7525 74.4716 86.6485 74.264 86.5847C74.006 86.4998 73.7356 86.4588 73.4641 86.4634C73.0963 86.4634 72.6275 86.4854 72.0574 86.5296V90.4517C72.1898 90.4655 72.4298 90.471 72.7773 90.471C72.957 90.4887 73.1384 90.4675 73.3093 90.409C73.4801 90.3505 73.6364 90.2559 73.7675 90.1317C73.9633 89.9056 74.0626 89.4919 74.0626 88.8933H74.4267V92.4376H74.0626C74.0626 91.8391 73.9633 91.4226 73.762 91.1881C73.6345 91.0597 73.4799 90.9614 73.3095 90.9003C73.1392 90.8393 72.9574 90.817 72.7773 90.8351C72.4381 90.8351 72.1981 90.8351 72.0574 90.8544V95.091C72.6201 95.1351 73.1791 95.1572 73.7344 95.1572C73.9649 95.1594 74.195 95.1382 74.4212 95.0937C74.6039 95.0582 74.778 94.988 74.9342 94.8868C75.0731 94.7966 75.1977 94.6859 75.3038 94.5586C75.4197 94.4198 75.5128 94.2633 75.5796 94.0952C75.6553 93.9105 75.718 93.7206 75.7672 93.5271C75.8168 93.3368 75.8665 93.1051 75.9189 92.8265H76.1947L76.123 95.5212H69.3434Z" fill="white"/>
<path d="M85.3049 95.5212V95.2151L86.331 95.1572V86.4716L85.316 86.4054V86.1021H89.0367V86.4054L88.0217 86.4716V95.1572L89.0367 95.2206V95.5267L85.3049 95.5212Z" fill="white"/>
<path d="M98.1111 89.1967L98.3153 86.1021H104.438V86.4523L99.8791 95.1847L102.395 95.2233H102.419C102.664 95.2216 102.905 95.16 103.12 95.0441C103.331 94.9267 103.514 94.7659 103.658 94.5724C103.817 94.3501 103.944 94.1057 104.033 93.847C104.138 93.5651 104.222 93.2755 104.284 92.9809C104.345 92.7051 104.394 92.3797 104.438 92.0211H104.736L104.535 95.5212H98.1305V95.1572L102.927 86.4248L100.704 86.4634C100.409 86.4492 100.114 86.503 99.843 86.6207C99.5718 86.7383 99.3313 86.9166 99.1399 87.1419C98.7924 87.5777 98.5469 88.2645 98.4063 89.1967H98.1111Z" fill="white"/>
<path d="M113.775 95.5212V95.2151L114.79 95.1516V86.4716L113.775 86.4054V86.1021H120.276L120.342 88.7885H120.066C120.024 88.531 119.968 88.276 119.898 88.0245C119.836 87.8066 119.751 87.5958 119.644 87.3956C119.55 87.2034 119.419 87.0318 119.258 86.8909C119.091 86.7525 118.898 86.6485 118.69 86.5847C118.432 86.4998 118.162 86.4588 117.89 86.4634C117.522 86.4634 117.053 86.4854 116.483 86.5296V90.4517C116.616 90.4655 116.856 90.471 117.203 90.471C117.383 90.4887 117.564 90.4675 117.735 90.409C117.906 90.3505 118.062 90.2559 118.194 90.1317C118.389 89.9056 118.489 89.4919 118.489 88.8933H118.853V92.4376H118.489C118.489 91.8391 118.389 91.4226 118.188 91.1881C118.06 91.0597 117.906 90.9614 117.736 90.9003C117.565 90.8393 117.383 90.817 117.203 90.8351C116.864 90.8351 116.624 90.8351 116.483 90.8544V95.091C117.046 95.1351 117.605 95.1572 118.16 95.1572C118.391 95.1594 118.621 95.1382 118.847 95.0937C119.03 95.0582 119.204 94.988 119.36 94.8868C119.499 94.7966 119.624 94.6859 119.73 94.5586C119.846 94.4198 119.939 94.2633 120.006 94.0952C120.081 93.9105 120.144 93.7206 120.193 93.5271C120.243 93.3368 120.292 93.1051 120.345 92.8265H120.621L120.549 95.5212H113.775Z" fill="white"/>
<path d="M129.737 95.521V95.2149L130.752 95.1514V86.4714L129.737 86.4052V86.1019H133.253C133.698 86.0976 134.141 86.1392 134.577 86.226C134.948 86.3018 135.305 86.4358 135.634 86.6231C135.936 86.7954 136.185 87.0473 136.353 87.3513C136.529 87.686 136.616 88.0601 136.607 88.438C136.624 88.7699 136.564 89.1011 136.433 89.4062C136.301 89.7114 136.101 89.9822 135.849 90.1977C135.254 90.6593 134.542 90.9459 133.794 91.0252C134.123 91.0222 134.45 91.0831 134.756 91.2045C135.002 91.3004 135.222 91.4503 135.402 91.643C135.584 91.852 135.738 92.0838 135.86 92.3326C135.956 92.5257 136.094 92.8208 136.273 93.2207C136.453 93.6207 136.629 93.9709 136.806 94.2799C136.919 94.4963 137.068 94.6922 137.247 94.8591C137.357 94.9693 137.49 95.0548 137.636 95.1101C137.754 95.1427 137.877 95.1585 138 95.157V95.521H136.897C136.631 95.5265 136.366 95.5053 136.105 95.4576C135.892 95.4048 135.694 95.3017 135.529 95.157C135.318 94.9727 135.143 94.7499 135.016 94.5005C134.867 94.2228 134.612 93.639 134.252 92.7491C134.199 92.6167 134.122 92.4457 134.023 92.236C133.895 91.9355 133.722 91.6565 133.51 91.4086C133.427 91.3031 133.324 91.2158 133.206 91.1521C133.104 91.1028 132.992 91.0773 132.878 91.0776H132.437V95.157L133.452 95.2204V95.5265L129.737 95.521ZM132.442 90.7218H132.718C133.501 90.7218 134.053 90.5315 134.373 90.1509C134.693 89.7702 134.853 89.2002 134.853 88.4408C134.86 88.1139 134.814 87.788 134.718 87.4754C134.64 87.2471 134.504 87.0428 134.323 86.8824C134.164 86.7405 133.976 86.6343 133.772 86.5707C133.547 86.5061 133.314 86.4745 133.079 86.477C132.867 86.4807 132.655 86.4992 132.445 86.5321L132.442 90.7218Z" fill="white"/>
<path d="M53.9803 77.9461C53.9802 77.7242 54.0052 77.5031 54.0547 77.2869C54.1023 77.0679 54.1793 76.8563 54.2837 76.658C54.3844 76.4611 54.5147 76.2806 54.6698 76.1229C54.8283 75.9662 55.0156 75.8416 55.2215 75.7561C55.457 75.6603 55.7092 75.6125 55.9634 75.6154C56.2599 75.6106 56.5501 75.7015 56.7909 75.8747C56.8968 75.9382 56.9851 76.0273 57.0478 76.1338C57.1104 76.2403 57.1454 76.3608 57.1494 76.4842C57.1513 76.596 57.1109 76.7043 57.0363 76.7876C56.997 76.8298 56.9491 76.863 56.8958 76.8849C56.8424 76.9068 56.785 76.9169 56.7274 76.9145C56.6716 76.9168 56.616 76.9078 56.5638 76.8878C56.5116 76.8679 56.4641 76.8376 56.424 76.7987C56.3847 76.7605 56.3538 76.7145 56.3334 76.6637C56.313 76.6129 56.3034 76.5583 56.3054 76.5035C56.3033 76.395 56.3439 76.29 56.4185 76.2112C56.4532 76.1727 56.4958 76.1421 56.5434 76.1216C56.591 76.1011 56.6425 76.0912 56.6943 76.0926H56.744V76.0788C56.6798 75.996 56.5952 75.9314 56.4985 75.8912C56.3507 75.817 56.1866 75.781 56.0213 75.7864C55.8336 75.7903 55.6504 75.8453 55.4915 75.9454C55.3326 76.0455 55.204 76.1869 55.1194 76.3546C54.8658 76.8126 54.7446 77.3321 54.7691 77.8551C54.7674 78.1095 54.7905 78.3636 54.8381 78.6136C54.8782 78.8378 54.9477 79.0557 55.0449 79.2617C55.1263 79.4454 55.2524 79.6056 55.4118 79.7279C55.5644 79.8421 55.7507 79.9023 55.9413 79.8989C56.2118 79.9054 56.4758 79.8155 56.6861 79.6451C56.902 79.4724 57.0717 79.2487 57.1798 78.9942L57.3204 79.0604C57.0336 79.7665 56.5509 80.1195 55.8724 80.1195C55.606 80.124 55.341 80.082 55.0891 79.9954C54.8844 79.9267 54.6965 79.8158 54.5374 79.6699C54.3943 79.5276 54.2784 79.3603 54.1954 79.1762C54.1087 78.9904 54.0475 78.7937 54.0134 78.5915C53.9848 78.3776 53.9737 78.1618 53.9803 77.9461V77.9461Z" fill="white"/>
<path d="M62.8341 80.0175V79.8796L63.1982 79.8492L64.6214 75.5989H64.7593L66.2294 79.8492L66.6266 79.8796V80.0175H65.0158V79.8796L65.424 79.8492L65.0682 78.7708H63.714L63.3637 79.8492L63.7719 79.8796V80.0175H62.8341ZM63.7746 78.5915L65.002 78.5667L64.4008 76.7187H64.387L63.7746 78.5915Z" fill="white"/>
<path d="M72.2202 80.0176V79.8797L72.6836 79.8494V75.8914L72.2202 75.8611V75.7231H75.0639L75.0942 76.9478H74.926C74.9156 76.8015 74.8916 76.6565 74.8543 76.5147C74.8215 76.3975 74.7693 76.2865 74.6998 76.1865C74.6309 76.0874 74.5352 76.0099 74.424 75.9631C74.2831 75.9099 74.1332 75.8846 73.9827 75.8886C73.8094 75.8849 73.6361 75.8941 73.4642 75.9162V77.7807H73.5497C73.6622 77.7825 73.7748 77.7751 73.8862 77.7587C73.9666 77.7427 74.0428 77.7098 74.1096 77.6621C74.1797 77.6068 74.2284 77.5288 74.2475 77.4415C74.2784 77.3152 74.2924 77.1853 74.2888 77.0553H74.4543V78.6744H74.2888C74.308 78.4735 74.2606 78.2719 74.1537 78.1007C74.0952 78.0417 74.0242 77.9967 73.9458 77.969C73.8675 77.9413 73.7839 77.9316 73.7014 77.9407H73.4642V79.8521L74.0461 79.8825V80.0204L72.2202 80.0176Z" fill="white"/>
<path d="M80.8974 80.0174V79.8795L81.3608 79.8492V75.8912L80.8974 75.8498V75.7119H83.8624L83.89 76.9365H83.7659C83.7462 76.8194 83.7204 76.7034 83.6887 76.589C83.6597 76.4889 83.6209 76.3919 83.5728 76.2994C83.5284 76.213 83.4686 76.1354 83.3963 76.0705C83.3197 76.0074 83.2317 75.9596 83.137 75.9298C83.0194 75.8925 82.8964 75.8748 82.773 75.8774C82.602 75.8774 82.3868 75.8774 82.1303 75.905V77.695C82.191 77.695 82.3013 77.695 82.4585 77.695C82.5406 77.7028 82.6233 77.693 82.7013 77.6664C82.7793 77.6398 82.8507 77.5969 82.9109 77.5406C83.0175 77.3724 83.065 77.1734 83.046 76.9752H83.2115V78.608H83.046C83.0653 78.4076 83.0167 78.2066 82.9081 78.0371C82.8494 77.9792 82.7787 77.935 82.701 77.9073C82.6234 77.8797 82.5406 77.8694 82.4585 77.8771C82.3041 77.8771 82.1827 77.8771 82.1303 77.8771V79.8078C82.3868 79.8271 82.6433 79.8381 82.8943 79.8381C82.9998 79.8384 83.105 79.8292 83.2088 79.8106C83.2922 79.7932 83.3717 79.7604 83.4432 79.714C83.506 79.6725 83.5626 79.6224 83.6115 79.5651C83.6624 79.5008 83.7033 79.4292 83.7328 79.3527C83.7679 79.2686 83.7965 79.1819 83.8183 79.0934C83.8404 79.0079 83.8652 78.9004 83.8873 78.7762H84.0169L83.9838 80.0036L80.8974 80.0174Z" fill="white"/>
<path d="M87.3322 38.6639C86.9689 37.6117 86.3774 36.6529 85.6001 35.8561C84.6764 34.9295 83.6284 34.1358 82.4861 33.4979C81.2118 32.7623 79.6534 31.968 77.811 31.1148C76.4912 30.5639 75.2159 29.9119 73.9964 29.1648C73.1988 28.6806 72.4712 28.0894 71.834 27.4078C71.7844 27.3499 71.7568 27.2975 71.7099 27.2396C72.2535 27.1149 72.7456 26.826 73.1193 26.4121C73.6831 25.7836 73.9868 24.9642 73.9688 24.1201C73.9688 22.6996 73.3786 21.4363 72.2229 20.322C72.2533 20.2945 72.2753 20.2586 72.3084 20.231C72.9186 19.7291 73.6228 19.354 74.3798 19.1277C75.311 18.8605 76.277 18.735 77.2456 18.7554C78.0906 18.7428 78.9341 18.8307 79.7583 19.0174C80.3737 19.1588 80.9727 19.364 81.5456 19.6297C81.9514 19.8158 82.3322 20.0521 82.6792 20.3331C82.8731 20.4919 83.0573 20.6623 83.2308 20.8433V20.9344C82.7688 20.9311 82.3094 21.0038 81.871 21.1495C81.4636 21.2829 81.088 21.4988 80.7678 21.7839C80.4508 22.0761 80.1998 22.4324 80.0313 22.8292C79.843 23.2778 79.7491 23.7604 79.7555 24.2469C79.749 24.689 79.8277 25.1282 79.9872 25.5405C80.1402 25.924 80.3712 26.2716 80.6657 26.561C80.9685 26.8554 81.3266 27.087 81.7193 27.2423C82.152 27.4134 82.6139 27.4987 83.0791 27.4933C83.5758 27.5042 84.0692 27.4102 84.5272 27.2175C84.9275 27.0473 85.2881 26.7955 85.5858 26.4783C85.8836 26.1611 86.112 25.7854 86.2565 25.375C86.408 24.9568 86.4846 24.5152 86.4827 24.0704C86.4833 23.211 86.29 22.3625 85.9173 21.588C85.5209 20.7702 84.9391 20.0562 84.2182 19.5029C83.3632 18.8514 82.3968 18.3607 81.3663 18.0548C80.0466 17.6674 78.676 17.4814 77.3007 17.5032C75.8305 17.4786 74.3683 17.7245 72.9869 18.2286C72.261 18.5066 71.5696 18.8675 70.9266 19.3043C69.187 18.157 67.1436 17.5575 65.0599 17.5832C63.1523 17.5611 61.259 17.9154 59.4884 18.6258C57.8967 19.2559 56.4491 20.2016 55.2325 21.406C54.0636 22.5916 53.0824 23.9486 52.3227 25.4302C51.5398 26.9278 50.9575 28.5219 50.5905 30.1715C50.2619 31.5841 50.1127 33.0326 50.1464 34.4825C50.1129 35.9316 50.2621 37.3791 50.5905 38.7908C50.9575 40.4404 51.5398 42.0345 52.3227 43.5321C53.0823 45.0145 54.0636 46.3724 55.2325 47.5591C56.45 48.7616 57.8975 49.7063 59.4884 50.3366C61.259 51.0469 63.1523 51.4012 65.0599 51.3791C66.8212 51.398 68.5591 50.9761 70.1157 50.1518C70.7823 50.4617 71.4744 50.7136 72.1843 50.9047C73.8283 51.3066 75.5177 51.4921 77.2097 51.4564C78.8097 51.4895 80.4013 51.2162 81.8986 50.651C83.1345 50.1779 84.2649 49.4656 85.225 48.5548C86.0837 47.729 86.7594 46.732 87.2081 45.6283C87.6357 44.5914 87.8586 43.4815 87.8645 42.3599C87.8905 41.1071 87.7107 39.8585 87.3322 38.6639V38.6639ZM69.9116 41.6235C69.4104 41.6122 68.9124 41.7062 68.4497 41.8993C68.0371 42.076 67.6667 42.3383 67.363 42.6688C67.0669 42.9993 66.84 43.3857 66.6955 43.8052C66.5413 44.2532 66.4648 44.7243 66.4694 45.1981C66.5307 46.029 66.7736 46.8364 67.1811 47.5632C67.5886 48.29 68.1506 48.9185 68.8276 49.4043C67.7765 49.8795 66.6324 50.1132 65.4792 50.0883C62.721 50.0883 60.4639 48.6587 58.7078 45.7993C56.9518 42.94 56.0683 39.1705 56.0572 34.4908C56.0572 29.8019 56.9408 26.0324 58.7078 23.1823C60.4749 20.3322 62.732 18.8997 65.4792 18.885C66.7211 18.8525 67.952 19.1242 69.0648 19.6766C69.3654 19.8366 69.6164 19.9911 69.8481 20.14C69.8288 20.1621 69.804 20.1786 69.7819 20.2007C68.928 21.0138 68.2568 21.9991 67.8126 23.0913C67.3555 24.207 67.124 25.4022 67.1313 26.6079C67.1303 27.5729 67.2367 28.535 67.4485 29.4764C67.6702 30.4293 68.0576 31.3359 68.5932 32.1546C69.2109 33.0807 69.9758 33.8996 70.8576 34.5791C71.9881 35.444 73.2304 36.152 74.5508 36.6836C76.5735 37.603 78.2146 38.4175 79.4742 39.1273C80.5243 39.7016 81.5147 40.3789 82.4309 41.1491C83.0433 41.6525 83.5376 42.2843 83.879 42.9998C84.1386 43.6188 84.2699 44.2841 84.2651 44.9553C84.2749 45.7408 84.045 46.5105 83.6059 47.1619C83.1565 47.8249 82.5753 48.3882 81.8986 48.8168C81.1579 49.2878 80.3483 49.6405 79.499 49.8621C78.6162 50.1027 77.7054 50.2252 76.7905 50.2262C75.8306 50.2385 74.8719 50.1582 73.9275 49.9863C73.2337 49.8603 72.5518 49.6757 71.8892 49.4346C71.7513 49.3795 71.6437 49.3271 71.5196 49.2719C73.1469 48.0197 73.8585 46.5551 73.8585 44.8588C73.8759 44.0148 73.5723 43.1956 73.009 42.5668C72.716 42.2474 72.3563 41.9966 71.9554 41.8321C71.5544 41.6677 71.1222 41.5936 70.6894 41.6152L69.9116 41.6235Z" fill="white"/>
<path d="M48.0668 65.1645C46.9636 64.8225 45.6645 64.4281 45.1845 64.2902L44.3102 64.0392L45.7858 63.7854C46.5995 63.6448 48.1386 63.3497 49.2115 63.129C52.1986 62.5194 55.1885 62.696 57.1247 63.6007L57.6432 63.8406L56.9951 64.4198C55.3043 65.9341 51.5477 66.2457 48.0668 65.1645ZM55.7897 62.5884C53.6163 61.7968 52.08 59.9985 51.2608 57.2927C51.0001 56.4557 50.7901 55.6037 50.6319 54.7414L50.5078 53.8532L53.2136 56.5949C56.0049 59.422 56.5758 60.2688 56.7496 61.8492C56.8627 62.7677 56.6779 62.9083 55.8035 62.5884H55.7897ZM44.6384 60.699C42.3243 59.9626 41.7258 59.6565 39.511 58.0898C38.7596 57.5877 38.0359 57.0454 37.343 56.4652C37.6464 56.2418 44.8922 57.05 45.5266 57.3782C45.7003 57.4692 46.4312 57.8361 47.1484 58.2057C47.8932 58.5794 48.5944 59.0346 49.2391 59.5627L50.0224 60.266L49.3025 60.5749C48.1165 61.0769 46.0341 61.1376 44.6522 60.699H44.6384ZM48.4061 58.1395C47.1456 57.1658 46.0092 55.5026 45.7417 54.2394C45.5879 52.9907 45.5381 51.7314 45.5928 50.4745L45.6562 47.799L46.3899 49.2388C46.7926 50.0332 47.3607 51.0344 47.6504 51.4674C49.0543 53.5747 49.8403 56.4321 49.4542 58.0319L49.2722 58.7904L48.4061 58.1395ZM40.8211 54.1953C40.1648 54.0487 39.5252 53.8352 38.9124 53.5581C37.7016 52.9155 35.633 51.0758 34.7255 49.8429C34.2373 49.1754 33.5643 48.3286 33.2333 47.9618C32.5521 47.206 32.5935 47.1702 33.6581 47.5894C34.2752 47.8071 34.9064 47.9822 35.5475 48.1135C36.8438 48.3727 39.089 49.4264 40.355 50.3642C41.3148 51.0758 42.8097 52.7886 43.2704 53.7015C43.5462 54.2532 43.5462 54.2918 43.2124 54.2946C42.9574 54.3018 42.7035 54.3323 42.4539 54.3856C41.9034 54.3992 41.3537 54.3351 40.8211 54.1953V54.1953ZM42.5036 51.6164C41.9823 50.993 41.7313 50.4138 41.4803 49.2416C41.3084 48.47 41.1977 47.6861 41.1493 46.8971C41.1493 45.7525 41.883 42.2661 42.3353 41.2566C42.716 40.4071 42.7215 40.4044 42.7408 41.0139C42.9162 42.1928 43.1556 43.3612 43.4579 44.514C43.8965 46.3179 44.1585 47.9011 44.1585 48.7479C44.1585 50.0856 43.7172 52.1101 43.3697 52.3335C43.2593 52.4052 42.8677 52.0715 42.4898 51.6164H42.5036ZM37.1444 46.0614C35.6133 45.4611 34.3057 44.4012 33.4016 43.0274C33.0127 42.4289 32.1549 40.8208 31.4985 39.4638L30.2986 36.9815L31.2475 37.5331C31.766 37.8393 32.7203 38.4654 33.3685 38.926C34.0167 39.3866 34.8579 39.9575 35.2468 40.2003C36.7004 41.1049 38.3525 43.7418 38.6477 45.6339C38.7966 46.613 38.7304 46.613 37.1444 46.0614ZM38.5428 43.5046C37.9912 42.0234 37.9912 40.1506 38.5235 38.3936C38.9538 36.9677 41.5355 32.6815 41.5244 33.4096C41.4941 35.8065 41.0914 40.6112 40.8597 41.3615C40.4653 42.6385 39.8585 43.8273 39.3675 44.2824C38.9704 44.6382 38.9566 44.6244 38.5428 43.4908V43.5046ZM34.8662 36.8849C33.0292 35.6465 31.9922 33.5503 31.3992 29.8874C31.2337 28.8559 31.0323 27.8381 30.9551 27.623C30.8448 27.3223 30.9799 27.3747 31.5343 27.8491C31.9342 28.1884 32.4804 28.6242 32.7507 28.8145C33.5974 29.4158 35.7516 32.7008 36.146 33.9916C36.5901 35.4507 36.648 37.6269 36.2398 37.6269C36.0881 37.6158 35.4702 37.2821 34.8662 36.8739V36.8849ZM37.0093 35.0866C36.9235 34.2753 36.989 33.4551 37.2024 32.6677C37.754 30.4225 38.3718 29.402 40.3274 27.485C41.3231 26.5087 42.1395 25.7557 42.1395 25.8136C42.1395 25.8715 41.9933 26.3983 41.8168 26.9858C40.8404 30.2377 40.2281 32.0223 39.8668 32.6732C39.3151 33.6772 37.4727 36.1871 37.2906 36.1871C37.2106 36.1761 37.0838 35.6796 37.0093 35.0756V35.0866ZM35.5806 28.3759C33.9753 27.372 33.3354 25.1544 33.5892 21.4805C33.6747 20.2255 33.7464 18.9071 33.7491 18.5485C33.7491 17.9142 33.774 17.928 34.4387 19.0616C34.7301 19.5753 35.0524 20.0709 35.404 20.5455C35.8178 21.0144 36.6094 22.9589 36.899 24.2111C37.1555 25.3144 37.092 26.47 36.6949 27.9788C36.4659 28.8834 36.4273 28.8972 35.5806 28.3759ZM37.5113 26.9969C37.5113 25.2564 38.5097 23.3478 40.2336 21.7949C40.959 21.1412 44.4812 19.0836 44.8784 19.0836C44.9363 19.0836 44.7019 19.4312 44.3516 19.8559C44.0013 20.2807 43.1738 21.4612 42.5119 22.479C41.1787 24.52 39.8686 26.0021 38.5815 26.9251C37.5637 27.6616 37.5113 27.6643 37.5113 27.0024V26.9969ZM37.7871 20.0738C36.4852 17.8149 36.5376 16.3448 38.0629 11.689L38.6366 9.95682L39.3151 12.0696C39.8502 13.7245 39.9936 14.5133 39.9936 15.7573C39.9936 17.4866 39.442 19.2905 38.6366 20.2559L38.187 20.7882L37.7871 20.0738ZM39.8502 19.2464C40.5425 17.0095 43.4 14.8747 46.8008 14.0527C48.7978 13.57 48.9384 13.6445 47.7524 14.5575C47.1677 15.0098 46.3733 15.6856 45.9734 16.0634C44.2909 17.6742 41.0087 19.7015 40.0709 19.707C39.7785 19.707 39.7316 19.6077 39.8447 19.2436L39.8502 19.2464ZM41.5824 12.8639C41.2792 11.4054 41.4353 9.88878 42.0292 8.52256C42.553 7.5837 43.1574 6.6922 43.8358 5.85816L45.1266 4.25566L45.2645 5.59889C45.5734 8.54739 44.8674 10.9967 43.2345 12.6598C42.6498 13.2528 42.0788 13.7383 41.9685 13.7383C41.8582 13.7383 41.6927 13.3466 41.5824 12.8639ZM44.586 12.0779C46.3016 10.4229 48.02 9.82442 51.1477 9.82994C53.3543 9.82994 53.7487 10.0478 52.4551 10.5443C51.9228 10.7484 50.7643 11.2807 49.8817 11.7303C48.2443 12.5867 46.4332 13.0584 44.586 13.1094H43.5076L44.586 12.0779ZM50.13 8.59979C49.8223 8.55818 49.5239 8.46493 49.2473 8.32397C49.0184 8.08953 49.5728 7.62064 50.6402 7.13796C52.2455 6.41531 54.7416 6.4622 57.064 7.25656C58.0321 7.58754 58.821 7.92955 58.821 8.02057C58.821 8.11159 58.4845 8.18331 58.068 8.18607C57.6515 8.18882 56.3221 8.32397 55.1057 8.48947C52.742 8.80941 51.3408 8.83975 50.1244 8.59703L50.13 8.59979ZM47.2752 7.84681C46.8367 6.05123 48.1523 3.82538 50.6981 2.05463C51.3518 1.60229 52.0772 1.12788 52.3144 1.00101L52.7475 0.766563L52.3889 2.20633C51.8842 4.21429 51.3187 5.30653 50.152 6.52012C49.3246 7.37792 47.8903 8.38741 47.4931 8.38741C47.4407 8.38465 47.347 8.14193 47.2752 7.84681ZM53.7018 4.21429C54.121 2.22288 55.1581 1.40094 58.3135 0.567974C59.0885 0.363868 59.8884 0.126665 60.0925 0.0384031C60.7986 -0.256722 59.8829 1.14168 58.319 2.73866C56.8158 4.28048 55.638 4.88452 54.1431 4.88452C53.5915 4.88452 53.5666 4.84867 53.7018 4.21429V4.21429Z" fill="white"/>
<path d="M81.6587 64.42L81.0133 63.8407L81.529 63.6008C83.4598 62.6961 86.4552 62.5196 89.4423 63.1291C90.5152 63.3498 92.0543 63.6449 92.8679 63.7856L94.3435 64.0393L93.4692 64.2903C92.9893 64.4282 91.6929 64.8226 90.5869 65.1647C87.1061 66.2459 83.3494 65.9342 81.6587 64.42ZM81.8904 61.8493C82.0641 60.2689 82.6351 59.4221 85.4264 56.595L88.1349 53.8534L88.008 54.7415C87.8499 55.6038 87.6399 56.4558 87.3791 57.2928C86.5517 59.9986 85.0237 61.7969 82.8502 62.5885C81.9759 62.9085 81.7911 62.7678 81.8904 61.8493ZM89.3374 60.564L88.6176 60.2551L89.4009 59.5518C90.0456 59.0236 90.7467 58.5685 91.4916 58.1947C92.2087 57.8362 92.9396 57.4693 93.1134 57.3673C93.7478 57.0391 100.994 56.2309 101.297 56.4543C100.605 57.0353 99.881 57.5777 99.129 58.0789C96.9224 59.6455 96.3156 59.9517 94.0043 60.6881C92.6197 61.1377 90.5373 61.077 89.3374 60.564ZM89.3816 58.7988L89.1995 58.0403C88.8134 56.435 89.5995 53.5831 91.0034 51.4758C91.293 51.0428 91.8612 50.0416 92.2639 49.2472L92.9976 47.8074L93.061 50.4829C93.1106 51.7374 93.0562 52.9939 92.8983 54.2395C92.6224 55.5028 91.4943 57.1659 90.2339 58.1396L89.3816 58.7988ZM96.2136 54.3857C95.964 54.3324 95.7102 54.3019 95.4551 54.2947C95.1269 54.2947 95.1214 54.245 95.3972 53.7017C95.8578 52.7887 97.3527 51.0759 98.3126 50.3643C99.5786 49.4265 101.824 48.3729 103.123 48.1136C103.763 47.9823 104.393 47.8072 105.009 47.5895C106.074 47.1703 106.113 47.2062 105.434 47.9619C105.103 48.3287 104.43 49.1755 103.942 49.843C103.035 51.0814 100.966 52.9156 99.7551 53.5582C99.1423 53.8353 98.5028 54.0489 97.8464 54.1954C97.3138 54.3353 96.7641 54.3993 96.2136 54.3857ZM95.2979 52.3281C94.9531 52.1102 94.5063 50.0857 94.509 48.7425C94.509 47.8957 94.7849 46.3125 95.2096 44.5087C95.5119 43.3558 95.7513 42.1874 95.9267 41.0085C95.9461 40.399 95.9516 40.4017 96.3322 41.2512C96.7873 42.2607 97.5182 45.7471 97.5182 46.8917C97.4698 47.6807 97.3592 48.4646 97.1872 49.2362C96.9362 50.4084 96.6852 50.9876 96.1667 51.611C95.7861 52.0716 95.3972 52.4053 95.2979 52.3281ZM100.006 45.6505C100.301 43.7584 101.953 41.1216 103.407 40.2169C103.796 39.9742 104.64 39.4033 105.285 38.9426C105.931 38.482 106.888 37.8559 107.409 37.5498L108.355 36.9981L107.158 39.4805C106.499 40.821 105.638 42.4345 105.252 43.0275C104.347 44.4038 103.036 45.4642 101.501 46.0615C99.9233 46.6131 99.8461 46.6131 100.006 45.6505ZM99.2862 44.2715C98.7952 43.8164 98.1829 42.6165 97.794 41.3505C97.5623 40.6003 97.1624 35.7956 97.1293 33.3987C97.1293 32.6705 99.6999 36.9568 100.13 38.3827C100.66 40.1397 100.652 42.0125 100.111 43.4936C99.6972 44.6245 99.6834 44.6383 99.2945 44.2687L99.2862 44.2715ZM102.414 37.6187C102.006 37.6187 102.064 35.4425 102.508 33.9834C102.902 32.6926 105.056 29.4076 105.903 28.8063C106.179 28.616 106.731 28.1802 107.119 27.841C107.671 27.3666 107.809 27.3142 107.699 27.6148C107.621 27.8299 107.423 28.8477 107.255 29.8793C106.662 33.5421 105.625 35.6383 103.788 36.8768C103.184 37.2822 102.566 37.616 102.414 37.616V37.6187ZM101.363 36.179C101.181 36.179 99.3414 33.669 98.787 32.665C98.4257 32.0141 97.8133 30.2296 96.8369 26.9777C96.6604 26.3902 96.5142 25.8744 96.5142 25.8054C96.5142 25.7365 97.3417 26.5005 98.3264 27.4769C100.282 29.4076 100.897 30.4144 101.451 32.6595C101.665 33.447 101.73 34.2671 101.644 35.0784C101.57 35.6797 101.443 36.1762 101.363 36.1762V36.179ZM101.948 27.9734C101.551 26.4646 101.487 25.309 101.744 24.2057C102.033 22.9535 102.825 21.009 103.239 20.5401C103.59 20.0655 103.913 19.5699 104.204 19.0562C104.869 17.9226 104.888 17.9088 104.894 18.5432C104.894 18.9017 104.968 20.2201 105.054 21.4751C105.307 25.1573 104.667 27.3748 103.062 28.3705C102.226 28.8974 102.188 28.8836 101.948 27.9706V27.9734ZM100.067 26.9335C98.7796 26.0141 97.4704 24.5321 96.1391 22.4874C95.4744 21.4696 94.6442 20.2808 94.2967 19.8643C93.9491 19.4478 93.7119 19.092 93.7698 19.092C94.167 19.092 97.6892 21.1496 98.4146 21.8033C100.138 23.3562 101.137 25.2648 101.137 27.0053C101.137 27.6645 101.09 27.6617 100.067 26.9308V26.9335ZM100.461 20.7966L100.012 20.2643C99.2035 19.2989 98.6573 17.5061 98.6573 15.7657C98.6573 14.5217 98.798 13.7412 99.3331 12.078L100.012 9.96522L100.585 11.6974C102.122 16.3532 102.174 17.8233 100.861 20.0822L100.461 20.7966ZM98.5884 19.6933C97.6506 19.6933 94.3684 17.6605 92.6859 16.0498C92.2942 15.6719 91.4943 14.9961 90.9069 14.5438C89.7208 13.6308 89.8615 13.5564 91.8584 14.039C95.2593 14.8665 98.1167 16.9958 98.809 19.2327C98.9221 19.6078 98.8752 19.7071 98.5884 19.7043V19.6933ZM97.0879 12.8613C96.9886 13.344 96.8121 13.7356 96.7018 13.7356C96.5915 13.7356 96.0095 13.2392 95.433 12.6572C93.8002 11.0023 93.0941 8.54475 93.403 5.59626L93.5437 4.25303L94.8317 5.85553C95.5101 6.68957 96.1146 7.58107 96.6383 8.51993C97.2331 9.88585 97.3902 11.4025 97.0879 12.8613V12.8613ZM95.1572 13.1178H94.0788C92.2316 13.0668 90.4205 12.5951 88.7831 11.7387C87.9004 11.2891 86.742 10.7568 86.2124 10.5527C84.9161 10.0562 85.3105 9.84385 87.5198 9.83834C90.6448 9.83834 92.3632 10.4231 94.0788 12.0863L95.1572 13.1178ZM83.5591 8.48407C82.3455 8.31858 81.0105 8.18067 80.5968 8.18067C80.183 8.18067 79.8438 8.1062 79.8438 8.01518C79.8438 7.92416 80.6326 7.58215 81.6008 7.25117C83.9231 6.45681 86.4193 6.40992 88.0246 7.13257C89.092 7.61525 89.6464 8.08414 89.4174 8.31858C89.1408 8.45954 88.8424 8.55279 88.5348 8.5944C87.3129 8.83988 85.9145 8.80954 83.5535 8.48407H83.5591ZM91.1661 8.38478C90.7689 8.38478 89.3319 7.37529 88.5072 6.51749C87.3405 5.30389 86.7751 4.21165 86.2704 2.2037L85.9118 0.774961L86.3448 1.00941C86.582 1.13628 87.3102 1.61069 87.9611 2.06303C90.5069 3.82551 91.8226 6.05136 91.384 7.85521C91.2958 8.14206 91.2075 8.38478 91.1606 8.38478H91.1661ZM84.5106 4.88465C83.0157 4.88465 81.8407 4.28061 80.3348 2.73879C78.7709 1.13628 77.8524 -0.256598 78.5612 0.0385274C78.7653 0.126789 79.5652 0.363993 80.3403 0.568098C83.4956 1.39555 84.5327 2.22301 84.9519 4.21441C85.0871 4.84879 85.0623 4.88465 84.5106 4.88465Z" fill="white"/>
<path d="M60.4786 62.7292L61.4495 62.4534H61.5736V65.5701L61.9129 65.5922V65.6942H60.68V65.5922L61.0192 65.5701V62.7237L60.5035 62.8478L60.4786 62.7292Z" fill="white"/>
<path d="M65.6447 63.4876C65.6434 63.3948 65.6536 63.3021 65.675 63.2118C65.6983 63.115 65.7355 63.0221 65.7853 62.936C65.8373 62.8452 65.9034 62.7632 65.9812 62.6933C66.0664 62.6154 66.1669 62.5562 66.2763 62.5195C66.4065 62.4739 66.5438 62.4515 66.6818 62.4533C66.8024 62.4512 66.9226 62.4689 67.0376 62.5057C67.1317 62.5337 67.2203 62.5775 67.2996 62.6353C67.3728 62.6908 67.4354 62.759 67.4844 62.8367C67.5322 62.9133 67.5719 62.9946 67.603 63.0794C67.6329 63.1693 67.6551 63.2616 67.6692 63.3552C67.6849 63.4465 67.6951 63.5386 67.6995 63.631C67.6995 63.7138 67.6995 63.8057 67.6995 63.9069C67.729 64.3889 67.634 64.8705 67.4237 65.3053C67.3387 65.4542 67.214 65.5766 67.0635 65.6589C66.9131 65.7412 66.7427 65.7802 66.5714 65.7714C66.4557 65.7726 66.3405 65.7568 66.2294 65.7245C66.1466 65.703 66.0689 65.6655 66.0005 65.6142C65.9469 65.5708 65.9012 65.5186 65.8653 65.4597C65.836 65.4116 65.8137 65.3596 65.7991 65.3053C65.7885 65.2629 65.783 65.2193 65.7826 65.1756C65.7808 65.09 65.8102 65.0067 65.8653 64.9412C65.8938 64.9057 65.9306 64.8778 65.9725 64.86C66.0144 64.8422 66.06 64.835 66.1053 64.8391C66.1432 64.8382 66.1809 64.845 66.216 64.8592C66.2511 64.8735 66.2829 64.8948 66.3094 64.9219C66.3372 64.9513 66.3589 64.9859 66.3731 65.0238C66.3873 65.0617 66.3938 65.1021 66.3922 65.1425C66.3943 65.1818 66.388 65.221 66.3737 65.2577C66.3595 65.2943 66.3375 65.3274 66.3094 65.3549C66.2538 65.4134 66.1776 65.448 66.097 65.4514V65.4514C66.13 65.5114 66.1826 65.5581 66.246 65.5838C66.3328 65.6219 66.4269 65.6407 66.5218 65.639C66.587 65.6398 66.652 65.6314 66.7149 65.6142C66.7713 65.598 66.8225 65.5676 66.8638 65.5259C66.9018 65.4863 66.9369 65.4439 66.9686 65.399C67.0034 65.3442 67.0277 65.2834 67.0403 65.2198C67.0596 65.1398 67.0734 65.0708 67.0845 65.0101C67.0955 64.9494 67.101 64.8667 67.1065 64.7564C67.112 64.646 67.1065 64.5578 67.1065 64.4806C67.1065 64.4033 67.1065 64.3123 67.1065 64.1799C67.0474 64.2719 66.9645 64.3463 66.8666 64.3951C66.7604 64.4508 66.6417 64.4783 66.5218 64.475C66.378 64.4778 66.2352 64.4506 66.1025 64.3951C65.9935 64.3433 65.8988 64.2657 65.8267 64.1689C65.7577 64.072 65.7063 63.9637 65.675 63.8489C65.6497 63.7303 65.6395 63.6088 65.6447 63.4876V63.4876ZM66.2294 63.4435C66.2294 63.5345 66.2294 63.609 66.2294 63.6724C66.2294 63.7359 66.2294 63.802 66.246 63.8793C66.2539 63.9441 66.2687 64.0079 66.2901 64.0696C66.3094 64.1192 66.3344 64.1664 66.3646 64.2103C66.3942 64.2554 66.4364 64.2909 66.4859 64.3123C66.5409 64.3354 66.6001 64.3467 66.6597 64.3454C66.768 64.3447 66.8726 64.3056 66.9548 64.2351C67.0449 64.1673 67.1076 64.0694 67.1313 63.9593V63.7993C67.1334 63.5974 67.1223 63.3957 67.0982 63.1952C67.0853 63.066 67.0528 62.9395 67.0017 62.8201C66.972 62.7494 66.9257 62.687 66.8666 62.6381C66.8188 62.6023 66.7607 62.5829 66.7011 62.5829C66.624 62.5819 66.5485 62.6044 66.4845 62.6472C66.4205 62.69 66.371 62.7513 66.3425 62.8229C66.2535 63.0154 66.2101 63.2259 66.2156 63.438L66.2294 63.4435Z" fill="white"/>
<path d="M75.9162 64.1662C75.916 63.9905 75.9317 63.8151 75.9631 63.6422C75.9921 63.4816 76.0402 63.3251 76.1065 63.176C76.1649 63.0397 76.244 62.9132 76.3409 62.8009C76.4382 62.6927 76.5573 62.6065 76.6905 62.548C76.8237 62.4895 76.9678 62.4601 77.1132 62.4617C77.2862 62.4533 77.4586 62.4882 77.6147 62.5634C77.7707 62.6385 77.9055 62.7515 78.0069 62.8919C78.2311 63.2352 78.3403 63.6409 78.3185 64.0504C78.3196 64.2211 78.3077 64.3917 78.2827 64.5606C78.2573 64.7201 78.2148 64.8764 78.1558 65.0268C78.1033 65.1687 78.0279 65.301 77.9324 65.4184C77.84 65.5297 77.7242 65.6192 77.5931 65.6805C77.4472 65.7482 77.2879 65.7821 77.127 65.7798C76.8829 65.7878 76.6428 65.7161 76.443 65.5757C76.2575 65.4359 76.1182 65.2437 76.0431 65.024C75.9529 64.7472 75.91 64.4572 75.9162 64.1662ZM76.5202 64.089C76.5155 64.3662 76.5367 64.6432 76.5837 64.9164C76.6115 65.1115 76.6781 65.2991 76.7795 65.4681C76.8129 65.5277 76.8612 65.5776 76.9197 65.6129C76.9783 65.6482 77.0449 65.6676 77.1132 65.6694C77.3063 65.6694 77.458 65.5343 77.5601 65.2612C77.6802 64.8854 77.7334 64.4915 77.7173 64.0973C77.7173 63.0988 77.5214 62.5968 77.127 62.5968C77.063 62.5969 77.0002 62.6141 76.945 62.6465C76.8788 62.6859 76.8222 62.7396 76.7795 62.8037C76.7224 62.8892 76.677 62.982 76.6443 63.0795C76.5999 63.2196 76.5694 63.3637 76.5533 63.5098C76.5303 63.702 76.5193 63.8954 76.5202 64.089V64.089Z" fill="white"/>
<path d="M70.6342 63.2615C70.6353 63.1942 70.6455 63.1274 70.6646 63.0629C70.6888 62.9878 70.7231 62.9164 70.7666 62.8505C70.817 62.7771 70.8784 62.712 70.9487 62.6575C71.033 62.5969 71.126 62.5495 71.2245 62.5168C71.3535 62.4791 71.4873 62.4606 71.6217 62.4616C71.8735 62.45 72.1217 62.5249 72.325 62.674C72.4129 62.7393 72.4838 62.8247 72.5318 62.9231C72.5798 63.0215 72.6034 63.13 72.6008 63.2394C72.6014 63.4498 72.5431 63.6562 72.4326 63.8352C72.2598 64.0952 72.055 64.3324 71.823 64.5413C71.31 65.0378 71.0195 65.3136 70.9514 65.3687H71.8671C71.9747 65.3687 72.0602 65.3687 72.1236 65.3687C72.1853 65.3641 72.2463 65.353 72.3057 65.3356C72.3543 65.3248 72.3991 65.301 72.4353 65.2667C72.4643 65.2309 72.4875 65.1909 72.5043 65.1481C72.5249 65.0895 72.537 65.0281 72.5401 64.9661H72.6643L72.6422 65.8073H70.6673V65.4818C70.841 65.3267 71.0067 65.1628 71.1638 64.9909C71.3173 64.8294 71.4601 64.658 71.5913 64.4779C71.6727 64.3664 71.7447 64.2483 71.8065 64.1248C71.8592 64.0206 71.899 63.9104 71.9251 63.7966C71.9474 63.7059 71.9631 63.6137 71.9719 63.5208C71.9765 63.4372 71.9765 63.3534 71.9719 63.2698C71.9852 63.095 71.9364 62.9211 71.834 62.7788C71.7872 62.7254 71.7288 62.6833 71.6634 62.6556C71.598 62.6279 71.5271 62.6153 71.4562 62.6188C71.3832 62.6186 71.3106 62.6298 71.241 62.6519C71.1813 62.6732 71.1254 62.7039 71.0755 62.743C71.0357 62.7745 70.9995 62.8106 70.968 62.8505C70.943 62.882 70.9234 62.9174 70.91 62.9553V62.9553H70.9652C71.0092 62.9529 71.0532 62.9598 71.0943 62.9756C71.1354 62.9915 71.1727 63.0158 71.2037 63.0471C71.2347 63.0783 71.2587 63.1158 71.2742 63.1571C71.2897 63.1983 71.2962 63.2424 71.2934 63.2863C71.2946 63.3296 71.2869 63.3727 71.2708 63.4129C71.2546 63.4531 71.2304 63.4895 71.1997 63.52C71.1689 63.5505 71.1323 63.5744 71.092 63.5902C71.0516 63.6059 71.0085 63.6133 70.9652 63.6118C70.9187 63.6143 70.8722 63.6068 70.8288 63.5896C70.7855 63.5725 70.7464 63.5462 70.7142 63.5125C70.6847 63.4782 70.6624 63.4383 70.6486 63.3951C70.6349 63.352 70.63 63.3066 70.6342 63.2615Z" fill="white"/>
<path d="M82.3813 75.2817L83.1039 74.7108C83.1689 74.6517 83.251 74.615 83.3384 74.606C83.4041 74.606 83.4677 74.6294 83.5177 74.6722C83.5446 74.6969 83.5657 74.7273 83.5796 74.7611C83.5934 74.795 83.5996 74.8315 83.5976 74.868C83.5973 74.9028 83.5897 74.9372 83.5755 74.969C83.5613 75.0008 83.5406 75.0293 83.5149 75.0528C83.4636 75.1048 83.3985 75.1411 83.3273 75.1576L82.4254 75.3976L82.3813 75.2817Z" fill="white"/>
</g>
<defs>
<clipPath id="clip0_22_643">
<rect width="138" height="95.9819" fill="white"/>
</clipPath>
</defs>
</svg>
