<svg width="364" height="77" viewBox="0 0 364 77" fill="none" xmlns="http://www.w3.org/2000/svg">
<g clip-path="url(#clip0_31_335)">
<path d="M109.674 31.4698C109.142 31.4619 108.611 31.532 108.099 31.6778C107.684 31.8015 107.297 32.0049 106.96 32.2766C106.662 32.5256 106.426 32.8422 106.274 33.2001C106.115 33.5753 106.035 33.9797 106.041 34.3874C106.04 34.6946 106.083 35.0005 106.168 35.2957C106.273 35.637 106.456 35.9496 106.701 36.209C107.052 36.5829 107.452 36.9072 107.89 37.1731C108.56 37.5812 109.26 37.9374 109.984 38.2387C111 38.7055 111.854 39.1419 112.555 39.5478C113.183 39.8967 113.759 40.3304 114.268 40.8366C114.692 41.2686 115.017 41.7882 115.218 42.3589C115.429 43.0142 115.529 43.7003 115.513 44.3885C115.509 45.0031 115.386 45.6112 115.152 46.1797C114.903 46.7836 114.531 47.3295 114.06 47.7831C113.532 48.2826 112.91 48.6724 112.23 48.9299C111.406 49.2407 110.53 49.3906 109.649 49.3713C108.72 49.3902 107.792 49.2879 106.889 49.0669C106.248 48.9112 105.639 48.6432 105.09 48.2753C104.677 47.9994 104.341 47.622 104.115 47.1793C103.919 46.7956 103.817 46.3716 103.815 45.9412C103.813 45.6808 103.854 45.4219 103.937 45.175C104.019 44.9465 104.145 44.7362 104.308 44.556C104.473 44.374 104.676 44.2303 104.902 44.1348C105.156 44.0259 105.429 43.9722 105.705 43.9775C105.961 43.9756 106.215 44.0239 106.452 44.1196C106.665 44.2077 106.857 44.339 107.016 44.5052C107.174 44.6706 107.296 44.8655 107.377 45.0786C107.469 45.3059 107.514 45.5492 107.509 45.7941C107.528 46.0393 107.492 46.2856 107.404 46.5154C107.316 46.7451 107.178 46.9528 107.001 47.1235C106.631 47.4298 106.16 47.5888 105.68 47.57V47.6207C105.785 47.724 105.901 47.8158 106.025 47.8948C106.248 48.0376 106.485 48.1567 106.732 48.2499C107.097 48.3836 107.472 48.4855 107.855 48.5544C108.373 48.6507 108.899 48.6949 109.425 48.6863C109.928 48.6858 110.429 48.6193 110.914 48.4884C111.38 48.3677 111.825 48.1742 112.23 47.9151C112.603 47.6798 112.923 47.3706 113.17 47.0068C113.412 46.6509 113.538 46.2292 113.531 45.7991C113.536 45.4301 113.465 45.064 113.323 44.7234C113.134 44.3312 112.862 43.9848 112.525 43.7086C112.021 43.2867 111.476 42.9161 110.899 42.6024C110.221 42.2066 109.32 41.7601 108.195 41.2629C107.469 40.9736 106.785 40.5879 106.163 40.1161C105.679 39.7423 105.259 39.2935 104.918 38.7867C104.622 38.3389 104.409 37.8424 104.287 37.3203C104.173 36.8037 104.116 36.2763 104.115 35.7473C104.112 35.0877 104.24 34.4342 104.491 33.8242C104.735 33.2241 105.104 32.6828 105.573 32.236C106.077 31.7642 106.672 31.3999 107.321 31.1653C108.079 30.8855 108.882 30.7496 109.689 30.7645C110.446 30.7517 111.199 30.8526 111.925 31.0638C112.492 31.228 113.025 31.4946 113.496 31.8503C113.892 32.1552 114.212 32.5477 114.431 32.9971C114.636 33.421 114.742 33.886 114.741 34.357C114.741 34.6007 114.7 34.8427 114.619 35.0724C114.541 35.2932 114.418 35.4955 114.258 35.6661C114.094 35.842 113.895 35.982 113.673 36.0771C113.421 36.1842 113.15 36.2377 112.876 36.2344C112.62 36.2379 112.366 36.1913 112.129 36.0974C111.913 36.0105 111.716 35.8831 111.549 35.7219C111.388 35.564 111.261 35.3738 111.178 35.1638C111.089 34.9377 111.044 34.6965 111.046 34.4534C111.043 34.1873 111.093 33.9233 111.194 33.677C111.289 33.462 111.427 33.2686 111.6 33.1087C111.777 32.9533 111.982 32.8343 112.205 32.7586C112.446 32.6801 112.698 32.6407 112.952 32.6419V32.5912C112.857 32.4929 112.757 32.3998 112.652 32.3121C112.463 32.1576 112.254 32.028 112.032 31.9265C111.715 31.7827 111.385 31.6705 111.046 31.5916C110.595 31.4968 110.135 31.4559 109.674 31.4698Z" fill="white"/>
<path d="M132.715 40.4003C132.714 39.4857 132.812 38.5737 133.009 37.6805C133.215 36.7771 133.536 35.9039 133.965 35.0826C134.383 34.2729 134.921 33.5305 135.56 32.8804C136.232 32.2216 137.028 31.704 137.903 31.3582C138.872 30.9696 139.908 30.7748 140.952 30.7848C142.179 30.7638 143.38 31.1374 144.377 31.8503C144.818 32.1145 145.185 32.4856 145.443 32.9292C145.702 33.3727 145.844 33.8743 145.856 34.3874C145.865 34.8508 145.698 35.3005 145.389 35.6458C145.226 35.8179 145.027 35.9524 144.807 36.04C144.587 36.1277 144.35 36.1663 144.113 36.1532C143.88 36.1583 143.649 36.1159 143.433 36.0286C143.217 35.9414 143.022 35.8111 142.858 35.6458C142.694 35.4908 142.564 35.3033 142.476 35.0954C142.389 34.8875 142.346 34.6636 142.35 34.4382C142.338 33.9889 142.504 33.5533 142.812 33.2254C142.956 33.0649 143.132 32.9367 143.329 32.8492C143.526 32.7617 143.74 32.717 143.956 32.718C144.021 32.7108 144.088 32.7108 144.154 32.718V32.6673C143.891 32.3196 143.54 32.0481 143.137 31.8808C142.524 31.5774 141.845 31.4293 141.161 31.4495C139.65 31.4495 138.41 32.2326 137.441 33.7988C136.472 35.365 135.986 37.4302 135.982 39.9943C135.978 41.0429 136.073 42.0894 136.267 43.12C136.441 44.0445 136.727 44.9443 137.121 45.7991C137.459 46.5564 137.983 47.2161 138.645 47.7172C139.275 48.1917 140.046 48.4434 140.835 48.4326C141.953 48.4536 143.043 48.0819 143.915 47.3823C144.802 46.6648 145.5 45.7416 145.948 44.693L146.532 44.967C145.343 47.8863 143.347 49.3443 140.546 49.3409C139.446 49.3582 138.351 49.1866 137.309 48.8335C136.465 48.5476 135.691 48.0877 135.037 47.4838C134.444 46.9003 133.965 46.2121 133.624 45.4541C133.266 44.6846 133.013 43.8705 132.872 43.0337C132.748 42.1616 132.696 41.2809 132.715 40.4003Z" fill="white"/>
<path d="M162.819 48.5189V47.9455L164.735 47.8186V31.4799L162.819 31.3582V30.7848H169.837V31.3582L167.921 31.4799V39.0505L174.614 38.9491V31.4799L172.698 31.3582V30.7848H179.716V31.3582L177.8 31.4799V47.8186L179.716 47.9455V48.5189H172.698V47.9455L174.614 47.8186V39.7964H167.921V47.8186L169.837 47.9455V48.5189H162.819Z" fill="white"/>
<path d="M195.327 31.6169V31.0486H202.253V31.6169L200.561 31.7438L203.869 44.145H203.92L207.767 30.7848H208.326L212.808 44.0942H212.854L216.411 31.7438L214.729 31.6169V31.0486H218.672V31.6169L217.148 31.7438L212.097 49.0263H211.538L206.964 36.0669L203.153 49.0263H202.594L197.207 31.7438L195.327 31.6169Z" fill="white"/>
<path d="M234.553 48.5189V47.9455L236.469 47.8186V31.4799L234.553 31.3582V30.7848H246.81L246.937 35.8589H246.429C246.347 35.375 246.241 34.8957 246.109 34.4229C245.991 34.0116 245.831 33.6136 245.631 33.2356C245.453 32.875 245.206 32.5527 244.904 32.2867C244.587 32.0272 244.223 31.8309 243.832 31.7083C243.34 31.5505 242.825 31.4751 242.308 31.485C241.603 31.485 240.719 31.5256 239.655 31.6068V38.9744C239.904 38.9744 240.356 39.0099 241.012 39.0099C241.35 39.0441 241.692 39.0046 242.014 38.8943C242.336 38.7839 242.63 38.6053 242.877 38.3706C243.253 37.9444 243.441 37.168 243.441 36.0416H244.122V42.6938H243.441C243.441 41.5673 243.253 40.7808 242.872 40.3394C242.63 40.0989 242.337 39.9146 242.016 39.7997C241.694 39.6848 241.352 39.6421 241.012 39.6747C240.371 39.6747 239.919 39.6747 239.655 39.7102V47.6867C240.717 47.773 241.774 47.8136 242.816 47.8136C243.25 47.8179 243.685 47.7788 244.112 47.6969C244.457 47.6266 244.786 47.4923 245.082 47.3011C245.634 46.9497 246.055 46.4275 246.281 45.8144C246.424 45.466 246.543 45.1083 246.637 44.7437C246.729 44.3885 246.825 43.9471 246.922 43.4244H247.481L247.344 48.4986L234.553 48.5189Z" fill="white"/>
<path d="M264.647 48.5189V47.9455L266.563 47.8186V31.4799L264.647 31.3582V30.7848H271.665V31.3582L269.749 31.4799V47.8186L271.665 47.9455V48.5189H264.647Z" fill="white"/>
<path d="M288.79 36.6048L289.176 30.7746H300.727V31.4343L292.129 47.8745L296.87 47.9455H296.916C297.378 47.946 297.832 47.8308 298.237 47.6106C298.635 47.3893 298.981 47.0867 299.254 46.7226C299.553 46.3033 299.79 45.8437 299.96 45.3577C300.157 44.8269 300.315 44.2825 300.433 43.7289C300.544 43.2215 300.641 42.5923 300.727 41.9225H301.286L300.9 48.5189H288.831V47.8339L297.876 31.3937L293.684 31.4698C293.127 31.4416 292.571 31.5418 292.059 31.7626C291.547 31.9835 291.093 32.3191 290.731 32.7434C290.076 33.5654 289.619 34.8593 289.354 36.615L288.79 36.6048Z" fill="white"/>
<path d="M318.325 48.5189V47.9455L320.241 47.8186V31.4799L318.325 31.3582V30.7848H330.583L330.71 35.8589H330.201C330.1 35.2957 329.993 34.8441 329.881 34.4229C329.764 34.0116 329.604 33.6136 329.404 33.2356C329.226 32.875 328.979 32.5527 328.677 32.2867C328.36 32.0272 327.996 31.8309 327.605 31.7083C327.112 31.5505 326.597 31.4751 326.08 31.485C325.375 31.485 324.491 31.5256 323.427 31.6068V38.9744C323.676 38.9744 324.129 39.0099 324.784 39.0099C325.123 39.0438 325.465 39.0041 325.787 38.8938C326.109 38.7835 326.403 38.605 326.649 38.3706C327.025 37.9444 327.213 37.168 327.213 36.0416H327.894V42.6938H327.213C327.213 41.5673 327.02 40.7808 326.644 40.3394C326.402 40.0989 326.11 39.9146 325.789 39.7997C325.467 39.6848 325.124 39.6421 324.784 39.6747C324.144 39.6747 323.692 39.6747 323.427 39.7102V47.6867C324.488 47.7713 325.541 47.8136 326.588 47.8136C327.023 47.8177 327.457 47.7786 327.884 47.6969C328.23 47.6266 328.559 47.4923 328.855 47.3011C329.116 47.132 329.351 46.925 329.551 46.6871C329.764 46.424 329.936 46.1296 330.059 45.8144C330.202 45.466 330.321 45.1083 330.415 44.7437C330.506 44.3885 330.603 43.9471 330.699 43.4244H331.238L331.101 48.4986L318.325 48.5189Z" fill="white"/>
<path d="M348.419 48.5189V47.9455L350.335 47.8186V31.4799L348.419 31.3582V30.7848H355.026C355.863 30.7775 356.7 30.8574 357.521 31.0233C358.22 31.1642 358.893 31.4161 359.513 31.7692C360.082 32.0935 360.551 32.5673 360.87 33.1392C361.199 33.7642 361.363 34.4627 361.347 35.1688C361.381 35.7936 361.27 36.4178 361.022 36.9926C360.774 37.5674 360.397 38.0772 359.919 38.4822C358.795 39.3385 357.454 39.8655 356.047 40.0045C356.666 39.9998 357.28 40.1135 357.856 40.3394C358.32 40.5201 358.737 40.8028 359.076 41.1665C359.421 41.5598 359.713 41.9965 359.945 42.4654C360.123 42.8308 360.382 43.3838 360.722 44.1348C361.026 44.8168 361.365 45.4824 361.739 46.129C361.954 46.5506 362.24 46.9331 362.582 47.2605C362.792 47.4646 363.041 47.625 363.314 47.7324C363.538 47.7922 363.768 47.8212 364 47.8186V48.5037H361.932C361.433 48.5153 360.933 48.4745 360.443 48.3819C360.038 48.2863 359.663 48.0929 359.35 47.8186C358.952 47.4726 358.626 47.052 358.39 46.5806C358.105 46.0562 357.622 44.9568 356.941 43.2824C356.845 43.0337 356.703 42.7141 356.515 42.3183C356.366 42.0093 356.196 41.7109 356.006 41.4252C355.85 41.2018 355.681 40.9883 355.498 40.7859C355.344 40.5871 355.148 40.4243 354.924 40.3089C354.734 40.212 354.523 40.1616 354.309 40.1618C353.943 40.1618 353.669 40.1618 353.476 40.1618V47.773L355.392 47.8998V48.4732L348.419 48.5189ZM353.501 39.4818C353.593 39.4818 353.76 39.4818 354.009 39.4818C355.49 39.4818 356.53 39.1233 357.129 38.4061C357.729 37.689 358.029 36.6166 358.029 35.1891C358.045 34.5721 357.959 33.9567 357.775 33.3675C357.641 32.924 357.39 32.5245 357.048 32.2106C356.745 31.9443 356.388 31.7454 356.001 31.6271C355.577 31.5054 355.137 31.4473 354.695 31.4546C354.295 31.459 353.896 31.4929 353.501 31.556V39.4818Z" fill="white"/>
<path d="M66.8351 45.2308C66.407 44.0023 65.713 42.8831 64.8024 41.953C63.7191 40.8696 62.4913 39.9407 61.1537 39.1926C59.6596 38.3233 57.8319 37.3947 55.6705 36.4069C54.1236 35.7646 52.6299 35.0011 51.2036 34.1236C50.2673 33.5668 49.4123 32.8838 48.6628 32.0939C48.6069 32.0279 48.5713 31.962 48.5205 31.896C49.1575 31.7498 49.7341 31.4114 50.172 30.9269C50.8387 30.1927 51.2018 29.2335 51.1884 28.2426C51.1785 27.4012 50.9925 26.5711 50.6425 25.8057C50.2924 25.0402 49.786 24.3563 49.1557 23.7977C49.1913 23.7673 49.2167 23.7267 49.2573 23.6911C49.9629 23.1051 50.7783 22.6652 51.6559 22.3972C52.7466 22.0795 53.8789 21.9273 55.0149 21.9456C56.0043 21.9302 56.9921 22.0324 57.9573 22.2501C58.6802 22.416 59.3837 22.6575 60.056 22.9706C60.5307 23.1884 60.9762 23.4646 61.3824 23.7926C61.5995 23.9793 61.8049 24.1793 61.9972 24.3914V24.4979C61.4567 24.4951 60.9194 24.5808 60.4067 24.7516C59.932 24.9084 59.4944 25.1605 59.121 25.4925C58.7484 25.8334 58.4537 26.2505 58.2571 26.7153C58.0361 27.2402 57.9271 27.8053 57.9369 28.3746C57.9315 28.8952 58.0264 29.412 58.2164 29.8968C58.3968 30.3467 58.6684 30.7544 59.0143 31.0943C59.3703 31.4359 59.7898 31.7048 60.2491 31.8859C60.7545 32.0883 61.2952 32.1884 61.8397 32.1802C62.4224 32.1901 63.0006 32.0777 63.537 31.8504C64.009 31.6454 64.4343 31.3467 64.7871 30.9725C65.1274 30.601 65.3885 30.1642 65.5545 29.6888C65.7315 29.2008 65.8209 28.6855 65.8187 28.1665C65.8202 27.1601 65.5944 26.1663 65.1581 25.259C64.6919 24.3027 64.0101 23.4673 63.166 22.8184C62.16 22.0578 61.0234 21.4869 59.8121 21.1338C58.2648 20.6808 56.6576 20.4652 55.0454 20.4944C53.3234 20.465 51.6108 20.754 49.9942 21.3469C49.1405 21.6686 48.3285 22.091 47.5753 22.6053C45.5388 21.2562 43.1434 20.549 40.6997 20.5756C38.4657 20.5502 36.2486 20.964 34.1747 21.7934C32.3097 22.5326 30.6127 23.6387 29.1845 25.0459C27.8138 26.4344 26.6639 28.0241 25.7746 29.7598C24.8552 31.511 24.1717 33.3758 23.7419 35.3058C23.3595 36.9588 23.1887 38.6536 23.2337 40.3495C23.1887 42.0455 23.3595 43.7402 23.7419 45.3932C24.1726 47.323 24.856 49.1877 25.7746 50.9393C26.664 52.6734 27.8139 54.2613 29.1845 55.648C30.6145 57.0702 32.3193 58.1871 34.195 58.931C36.2679 59.7644 38.4855 60.18 40.72 60.1539C42.7848 60.1764 44.8222 59.6809 46.6453 58.7128C47.4259 59.0773 48.237 59.3728 49.0693 59.5957C50.9977 60.0668 52.9793 60.2851 54.9641 60.2452C56.8452 60.2793 58.7154 59.952 60.4727 59.2811C61.9212 58.729 63.2459 57.896 64.3704 56.8303C65.3768 55.8642 66.1681 54.6971 66.6928 53.4053C67.195 52.1917 67.4573 50.8925 67.4652 49.5794C67.4959 48.1051 67.283 46.6359 66.8351 45.2308ZM46.4217 48.6965C45.8342 48.6871 45.2511 48.7994 44.7092 49.0263C44.2252 49.2345 43.7905 49.5423 43.4337 49.9295C43.0854 50.3152 42.8191 50.7675 42.6511 51.2589C42.4705 51.7828 42.3811 52.3337 42.3868 52.8877C42.4592 53.86 42.7442 54.8047 43.2218 55.6551C43.6995 56.5055 44.3581 57.241 45.1513 57.8096C43.9177 58.3646 42.5758 58.6385 41.2231 58.6113C38.0047 58.6113 35.3605 56.9386 33.2905 53.593C31.2205 50.2475 30.1856 45.8364 30.1856 40.3597C30.1856 34.8728 31.2205 30.4583 33.2905 27.1162C35.3605 23.774 38.0047 22.1012 41.2231 22.0979C42.6858 22.0562 44.1362 22.3751 45.446 23.0264C45.7967 23.2142 46.0914 23.3918 46.3658 23.5694L46.2845 23.6353C45.2853 24.5886 44.499 25.7419 43.9774 27.0198C43.4473 28.3265 43.1814 29.7251 43.1948 31.1349C43.1917 32.2649 43.3162 33.3917 43.5658 34.494C43.8222 35.605 44.271 36.6628 44.8921 37.6196C45.6157 38.7045 46.5117 39.6643 47.5448 40.4612C48.8669 41.468 50.3179 42.294 51.8592 42.917C54.2307 43.9792 56.1532 44.9315 57.6269 45.7738C58.8581 46.4449 60.0191 47.2371 61.0927 48.1383C61.8097 48.7286 62.3889 49.468 62.79 50.305C63.0937 51.0295 63.2476 51.808 63.2423 52.5934C63.2528 53.511 62.9833 54.41 62.4698 55.1711C61.9419 55.9482 61.2606 56.6096 60.4676 57.1145C59.5981 57.6649 58.6484 58.0774 57.6524 58.3373C56.6182 58.6149 55.5522 58.7565 54.4814 58.7585C53.357 58.7738 52.2337 58.6803 51.1274 58.4794C50.3135 58.3295 49.5143 58.1088 48.739 57.8198C48.5764 57.7589 48.4493 57.6929 48.307 57.632C50.2127 56.1656 51.0461 54.4506 51.0461 52.4818C51.0623 51.4919 50.6987 50.5333 50.0297 49.8026C49.6864 49.4287 49.2649 49.1349 48.795 48.9419C48.3251 48.749 47.8185 48.6617 47.311 48.6863L46.4217 48.6965Z" fill="white"/>
<path d="M20.8351 76.2533C19.5393 75.8474 18.0199 75.3907 17.4558 75.2385L16.4394 74.9442L18.1672 74.6448C19.1226 74.4825 20.9266 74.1374 22.1818 73.8786C25.6831 73.1683 29.1895 73.3712 31.456 74.4317L32.0607 74.7108L31.3035 75.3907C29.3013 77.1515 24.9005 77.5168 20.8351 76.2533ZM29.901 73.2393C27.3601 72.3107 25.5561 70.1948 24.5956 67.0387C24.2922 66.0593 24.0461 65.0631 23.8588 64.0551L23.7114 63.0403L26.8824 66.2471C30.1551 69.5555 30.8208 70.55 31.0291 72.397C31.1307 73.4473 30.9122 73.6148 29.8857 73.2393H29.901ZM16.8206 71.027C14.1069 70.1644 13.4056 69.8092 10.8089 67.9825C9.92891 67.3934 9.08077 66.7582 8.26799 66.0797C8.62371 65.8209 17.1153 66.7647 17.8623 67.1503L19.7629 68.1043C20.6333 68.5458 21.4543 69.0781 22.2123 69.6925L23.1321 70.5196L22.2834 70.8798C20.5205 71.4862 18.6137 71.5375 16.8206 71.027ZM21.2366 68.0332C19.7578 66.8916 18.4264 64.9482 18.1164 63.4665C17.9262 62.01 17.8616 60.5399 17.9233 59.0723L17.9944 55.9416L18.8583 57.6262C19.3309 58.5548 19.9916 59.7269 20.332 60.2343C21.9785 62.6953 22.8983 66.034 22.446 67.9165L22.2326 68.8045L21.2366 68.0332ZM12.3131 63.4158C11.5446 63.2425 10.7955 62.9926 10.0771 62.6699C8.2022 61.5154 6.54282 60.0439 5.17321 58.3213C4.59898 57.545 3.81131 56.5505 3.42001 56.1192C2.62218 55.2363 2.673 55.1957 3.92819 55.6828C4.64955 55.9394 5.38826 56.1446 6.13874 56.2968C8.15637 56.8364 10.0626 57.7279 11.7693 58.9302C13.123 60.028 14.2781 61.3495 15.1842 62.8373C15.5095 63.4716 15.4993 63.5274 15.1182 63.5325C14.8192 63.5422 14.5217 63.5779 14.2289 63.639C13.583 63.6536 12.9382 63.5785 12.3131 63.4158ZM14.2848 60.3713C13.639 59.5726 13.2242 58.6128 13.0855 57.5957C12.8873 56.6988 12.7598 55.7878 12.7044 54.8709C12.8965 52.624 13.3624 50.4089 14.0917 48.2746C14.5389 47.2597 14.549 47.2597 14.5693 47.9904C14.7741 49.3696 15.054 50.7365 15.4078 52.0852C15.8459 53.7064 16.1216 55.3671 16.2311 57.0427C16.2311 58.6055 15.7229 60.9751 15.3062 61.2288C15.1842 61.3049 14.737 60.9295 14.2848 60.3967V60.3713ZM8.01899 53.8815C6.22497 53.178 4.69301 51.9372 3.63344 50.3296C3.18117 49.6294 2.17499 47.7519 1.40256 46.1586L0 43.2867L1.10782 43.9362C1.71763 44.2964 2.83561 45.0271 3.59279 45.57C4.34997 46.113 5.34091 46.7777 5.79827 47.0568C7.50065 48.1173 9.43679 51.2023 9.78235 53.4197C9.95513 54.536 9.8789 54.5563 8.01899 53.8815ZM9.66039 50.8877C9.03141 48.9448 9.03141 46.8534 9.66039 44.9104C10.1686 43.241 13.1871 38.2278 13.177 39.0802C13.1363 41.8811 12.6688 47.5033 12.3944 48.3811C11.9319 49.9034 11.2205 51.2683 10.6462 51.8011C10.1635 52.2324 10.1635 52.2172 9.65531 50.8877H9.66039ZM5.35107 43.1497C3.19642 41.6985 1.98188 39.2477 1.28568 34.96C1.16188 34.069 0.992266 33.1849 0.777507 32.3113C0.645381 31.9561 0.807997 32.0221 1.45846 32.5752C1.92598 32.971 2.56628 33.4784 2.88135 33.7067C3.8977 34.4069 6.39791 38.2734 6.86035 39.7602C7.36852 41.4701 7.44983 44.0174 6.97215 44.0174C6.39144 43.8106 5.84502 43.5181 5.35107 43.1497ZM7.86653 41.0439C7.76477 40.0944 7.84059 39.1344 8.09013 38.2125C8.74059 35.5841 9.4622 34.3917 11.7541 32.1236C12.4166 31.4265 13.1245 30.7739 13.8732 30.17C13.8732 30.236 13.7055 30.8551 13.4971 31.5401C12.3537 35.3457 11.6372 37.4311 11.2103 38.1973C10.5599 39.3694 8.4052 42.3074 8.19177 42.3074C7.98773 41.9167 7.87645 41.4844 7.86653 41.0439ZM6.19972 33.2044C4.31948 32.0373 3.55722 29.4343 3.8672 25.1264C3.96884 23.6599 4.05015 22.1123 4.05523 21.6912C4.05523 20.9503 4.08572 20.9656 4.86323 22.295C5.20426 22.8965 5.58275 23.4761 5.99645 24.0303C6.47922 24.5783 7.40918 26.8566 7.74965 28.3231C8.03932 29.7901 7.95545 31.3062 7.50573 32.7325C7.22624 33.7981 7.1805 33.8133 6.19972 33.2044ZM8.4611 31.5959C8.4611 29.5662 9.6299 27.3285 11.6473 25.5069C12.5011 24.7407 16.6275 22.3356 17.0899 22.3356C17.161 22.3356 16.8815 22.7415 16.475 23.2388C16.0685 23.736 15.0928 25.1213 14.3153 26.3137C12.7552 28.6985 11.2154 30.439 9.71121 31.5096C8.51192 32.3671 8.4611 32.3722 8.4611 31.5959ZM8.766 23.4773C7.24148 20.8286 7.30246 19.1135 9.10648 13.6639L9.77727 11.6342L10.57 14.1256C11.0972 15.5044 11.3676 16.9678 11.3679 18.4437C11.3679 20.4734 10.7276 22.5791 9.77727 23.7056L9.2691 24.3297L8.766 23.4773ZM11.1798 22.5182C11.9929 19.9 15.3418 17.3984 19.3106 16.4293C21.6533 15.8661 21.8159 15.9523 20.4235 17.023C19.7375 17.5304 18.8024 18.3422 18.34 18.7837C16.3683 20.6713 12.5214 23.0409 11.4238 23.046C11.1087 23.0612 11.0528 22.9445 11.1798 22.5182ZM13.2125 15.0491C12.8531 13.3459 13.0306 11.5734 13.7207 9.97499C14.3324 8.87653 15.0398 7.834 15.8347 6.85947L17.3592 4.98204L17.5218 6.55502C17.8826 10.0054 17.0543 12.8723 15.1436 14.8157C14.7127 15.3062 14.2129 15.7318 13.6597 16.0792C13.5276 16.0792 13.3243 15.6174 13.2024 15.0643L13.2125 15.0491ZM16.7342 14.1307C18.7669 12.1822 20.7589 11.4922 24.4228 11.5023C27.0145 11.5023 27.4719 11.756 25.9474 12.3345C25.3223 12.5729 23.9655 13.1971 22.9288 13.7248C21.0104 14.7282 18.8887 15.2834 16.724 15.3485H15.4739L16.7342 14.1307ZM23.2337 10.0714C22.879 10.0183 22.5355 9.90689 22.2174 9.74158C21.9531 9.47265 22.5985 8.91957 23.8537 8.35634C25.7339 7.50896 28.6559 7.56477 31.3797 8.49334C32.513 8.87897 33.4379 9.2849 33.4379 9.38639C33.4379 9.48787 33.0415 9.5792 32.5587 9.58428C32.0759 9.58935 30.526 9.74158 29.0828 9.93947C26.298 10.3048 24.6566 10.3454 23.2337 10.0612V10.0714ZM19.895 9.20372C19.3868 7.10302 20.9114 4.49492 23.9045 2.43482C24.6668 1.92741 25.5205 1.34896 25.8 1.20181L26.3082 0.927803L25.8915 2.59719C25.302 4.94652 24.6363 6.2252 23.2693 7.67133C22.3038 8.68616 20.6217 9.85828 20.1542 9.85828C20.0932 9.81261 19.9763 9.52846 19.895 9.20372ZM27.4414 4.9313C27.9496 2.60227 29.1438 1.63818 32.8433 0.663948C33.7529 0.425464 34.688 0.156535 34.9319 0.0449039C35.7551 -0.300137 34.6829 1.32866 32.8484 3.20609C31.0901 5.00741 29.7079 5.71779 27.9547 5.71779C27.294 5.71779 27.2686 5.67719 27.4414 4.9313Z" fill="white"/>
<path d="M60.1881 75.3814L59.4564 74.7014L60.0611 74.4223C62.3275 73.3618 65.8339 73.1589 69.3353 73.8693C70.5905 74.128 72.3843 74.4731 73.3498 74.6355L75.0776 74.9348L74.0613 75.2291C73.4972 75.3915 71.9778 75.8482 70.6819 76.2439C66.5708 77.5176 62.17 77.1522 60.1881 75.3814ZM60.4575 72.3724C60.6658 70.5254 61.3315 69.5309 64.6042 66.2225L67.7752 63.0157L67.6278 64.0305C67.4404 65.0385 67.1944 66.0347 66.8909 67.0141C65.9305 70.1804 64.1316 72.2861 61.5856 73.2147C60.5591 73.6155 60.3406 73.4481 60.4727 72.3724H60.4575ZM69.1879 70.8502L68.3392 70.4899L69.259 69.6628C70.017 69.0485 70.8381 68.5161 71.7084 68.0746L73.609 67.1207C74.356 66.735 82.8476 65.7912 83.2033 66.05C82.3906 66.7286 81.5424 67.3637 80.6625 67.9528C78.0657 69.7897 77.3644 70.1448 74.6508 70.9973C72.8597 71.5144 70.9529 71.4701 69.1879 70.8704V70.8502ZM69.2387 68.785L69.0253 67.897C68.573 66.0145 69.4928 62.6757 71.1393 60.2148C71.4798 59.7073 72.1556 58.5352 72.613 57.6067L73.4769 55.922L73.548 59.0528C73.6097 60.5203 73.5451 61.9905 73.3549 63.447C73.0449 64.9286 71.7135 66.872 70.2347 68.0137L69.2387 68.785ZM77.2425 63.6398C76.9497 63.5786 76.6521 63.543 76.3531 63.5332C75.972 63.5332 75.9619 63.4724 76.2871 62.8381C77.1932 61.3503 78.3483 60.0288 79.702 58.931C81.4103 57.7281 83.3183 56.8366 85.3377 56.2975C86.0881 56.1454 86.8269 55.9402 87.5482 55.6836C88.7983 55.1761 88.8491 55.237 88.0564 56.1199C87.6651 56.5512 86.8774 57.5458 86.3032 58.3221C84.9336 60.0447 83.2742 61.5162 81.3993 62.6706C80.6809 62.9933 79.9318 63.2432 79.1633 63.4165C78.5365 63.5797 77.89 63.6548 77.2425 63.6398ZM76.1702 61.2296C75.7637 60.9759 75.2402 58.6063 75.2453 57.0434C75.3548 55.3678 75.6305 53.7072 76.0686 52.086C76.4224 50.7373 76.7023 49.3703 76.9071 47.9912C76.9071 47.2808 76.9375 47.2808 77.3847 48.2753C78.1123 50.4099 78.5764 52.625 78.767 54.8717C78.7109 55.7955 78.5817 56.7134 78.3808 57.6168C78.242 58.6339 77.8273 59.5937 77.1815 60.3924C76.7343 60.9302 76.2871 61.3057 76.1702 61.2296ZM81.689 53.4205C82.0345 51.2031 83.9707 48.118 85.6731 47.0575C86.1304 46.7785 87.1214 46.1087 87.8785 45.5708C88.6357 45.0329 89.7537 44.2972 90.3635 43.9369L91.4713 43.2874L90.0688 46.1848C89.2963 47.7781 88.2902 49.6555 87.8379 50.3557C86.7783 51.9633 85.2464 53.2041 83.4523 53.9076C81.5924 54.5571 81.5162 54.5368 81.689 53.4205ZM80.8454 51.8272C80.2712 51.3198 79.5597 49.9041 79.0973 48.4072C78.8229 47.5294 78.3554 41.9073 78.3147 39.1064C78.3147 38.2539 81.3282 43.2671 81.8313 44.9365C82.4602 46.8795 82.4602 48.9709 81.8313 50.9139C81.3078 52.2179 81.3078 52.2331 80.8454 51.8272ZM84.5093 44.0435C84.0317 44.0435 84.0977 41.5064 84.6211 39.7863C85.0836 38.264 87.6092 34.4331 88.6001 33.7328C88.9152 33.5045 89.5555 32.9971 90.023 32.6013C90.6735 32.0482 90.8361 31.9823 90.704 32.3375C90.4892 33.2111 90.3196 34.0951 90.1958 34.9862C89.5047 39.2738 88.2902 41.7246 86.1304 43.1758C85.6349 43.5353 85.0886 43.8192 84.5093 44.0181V44.0435ZM83.2796 42.3589C83.0661 42.3589 80.9115 39.421 80.261 38.2488C79.8341 37.4826 79.1176 35.3972 77.9742 31.5916C77.7659 30.9066 77.5982 30.2875 77.5982 30.2215C78.3468 30.8254 79.0548 31.478 79.7173 32.1751C82.0091 34.4179 82.7307 35.6103 83.3812 38.264C83.6307 39.1859 83.7066 40.1459 83.6048 41.0954C83.591 41.5273 83.4799 41.9505 83.2796 42.3335V42.3589ZM83.9656 32.7586C83.5159 31.3324 83.432 29.8162 83.7217 28.3492C84.0621 26.8828 84.9921 24.6045 85.4749 24.0565C85.8886 23.5022 86.2671 22.9227 86.6081 22.3211C87.4059 20.9663 87.4059 20.9511 87.4059 21.6919C87.4059 22.1131 87.4923 23.6607 87.594 25.1271C87.9141 29.4351 87.1518 32.0381 85.2716 33.2051C84.2908 33.814 84.2451 33.7988 83.9656 32.7332V32.7586ZM81.7601 31.5307C80.2356 30.46 78.7111 28.7196 77.1561 26.3348C76.3786 25.1423 75.4029 23.7571 74.9963 23.2598C74.5898 22.7626 74.3103 22.3566 74.3814 22.3566C74.8439 22.3566 78.955 24.7618 79.824 25.528C81.8567 27.3496 83.0102 29.5873 83.0102 31.6169C83.0102 32.373 82.9594 32.3679 81.7601 31.5307ZM82.2226 24.3508L81.7144 23.7267C80.7641 22.6002 80.1289 20.4894 80.1238 18.4648C80.124 16.9889 80.3944 15.5255 80.9216 14.1467L81.7144 11.6807L82.3852 13.7103C84.1892 19.1599 84.2502 20.875 82.7256 23.5237L82.2226 24.3508ZM80.0272 23.0772C78.9296 23.0772 75.0827 20.7025 73.111 18.8149C72.6486 18.3734 71.7135 17.5819 71.0275 17.0542C69.6351 15.9835 69.7977 15.8973 72.1404 16.4605C76.1245 17.4195 79.4733 19.9211 80.2712 22.5495C80.4185 22.9452 80.3626 23.0619 80.0272 23.0569V23.0772ZM78.2588 15.0499C78.1368 15.6131 77.9336 16.0647 77.8014 16.0647C77.2483 15.7173 76.7485 15.2918 76.3176 14.8013C74.4068 12.8579 73.5785 9.99097 73.9393 6.54056L74.1019 4.96758L75.6265 6.84501C76.4254 7.82237 77.1362 8.86833 77.7506 9.97067C78.4407 11.5691 78.6182 13.3416 78.2588 15.0448V15.0499ZM75.9974 15.3543H74.7372C72.5724 15.2892 70.4508 14.734 68.5323 13.7306C67.516 13.2232 66.1388 12.5788 65.5138 12.3403C63.9893 11.7618 64.4568 11.5132 67.0383 11.5081C70.7023 11.5081 72.7146 12.1881 74.727 14.1365L75.9974 15.3543ZM62.4089 9.93008C60.986 9.73219 59.4208 9.57489 58.9329 9.57489C58.4451 9.57489 58.0538 9.48356 58.0538 9.377C58.0538 9.27044 58.9787 8.86959 60.0865 8.48396C62.8103 7.55539 65.7323 7.49957 67.6126 8.34695C68.8677 8.91018 69.5131 9.46326 69.2489 9.73219C68.9307 9.89751 68.5872 10.009 68.2325 10.062C66.8147 10.3462 65.1733 10.3056 62.4089 9.93008ZM71.3222 9.81338C70.8547 9.81338 69.1726 8.6311 68.2071 7.62642C66.8401 6.20567 66.1744 4.92699 65.5849 2.57766L65.1682 0.90827L65.6764 1.18227C65.9559 1.32942 66.8096 1.88758 67.5719 2.41529C70.5549 4.47539 72.0997 7.08349 71.5814 9.18418C71.495 9.52923 71.3781 9.81338 71.3222 9.81338ZM63.5218 5.71855C61.7686 5.71855 60.3863 5.00817 58.628 3.20685C56.8698 1.40554 55.7213 -0.299374 56.5445 0.0456676C56.7884 0.14715 57.7235 0.426227 58.6331 0.664712C62.3326 1.63895 63.5472 2.60303 64.035 4.93206C64.2027 5.67796 64.1773 5.71855 63.5218 5.71855Z" fill="white"/>
<path d="M35.3689 73.4024L36.5072 73.0878H36.6495V76.7361H37.0459V76.8528H35.6128V76.7361H36.0092V73.3974L35.4045 73.5394L35.3689 73.4024Z" fill="white"/>
<path d="M41.4009 74.2904C41.4016 74.1843 41.4153 74.0787 41.4416 73.9758C41.4683 73.8637 41.5111 73.7561 41.5686 73.6562C41.6288 73.5481 41.706 73.4505 41.7973 73.3669C41.8983 73.2789 42.0157 73.2116 42.1429 73.169C42.2962 73.1145 42.4578 73.087 42.6205 73.0879C42.7618 73.0863 42.9024 73.1068 43.0372 73.1487C43.1475 73.1839 43.252 73.2352 43.3472 73.301C43.4311 73.3681 43.5032 73.4487 43.5607 73.5395C43.6186 73.6278 43.6647 73.7233 43.6979 73.8236C43.7357 73.9289 43.7629 74.0377 43.7792 74.1484C43.7792 74.2701 43.8097 74.3767 43.8147 74.4731C43.8198 74.5695 43.8147 74.671 43.8147 74.7928C43.8493 75.3557 43.739 75.9182 43.4946 76.4266C43.3932 76.6031 43.2441 76.7476 43.0644 76.8436C42.8847 76.9396 42.6816 76.9833 42.4782 76.9696C42.3427 76.9722 42.2074 76.9551 42.0768 76.9188C41.9801 76.8905 41.8891 76.8459 41.8075 76.7869C41.7474 76.7363 41.6959 76.6764 41.655 76.6093C41.5878 76.5108 41.554 76.3935 41.5585 76.2744C41.5561 76.1752 41.5884 76.0783 41.6499 76.0004C41.6849 75.96 41.7288 75.9284 41.7783 75.9081C41.8277 75.8879 41.8812 75.8795 41.9345 75.8837C41.9789 75.8817 42.0232 75.8893 42.0644 75.906C42.1056 75.9226 42.1428 75.9479 42.1733 75.9801C42.2063 76.0133 42.2319 76.0531 42.2485 76.0968C42.2651 76.1405 42.2724 76.1872 42.2699 76.2338C42.2717 76.2797 42.2641 76.3254 42.2475 76.3682C42.2309 76.4109 42.2056 76.4498 42.1733 76.4825C42.109 76.5527 42.0195 76.5946 41.9243 76.5992C41.9637 76.6693 42.0267 76.7232 42.1022 76.7514C42.2057 76.7985 42.3188 76.8211 42.4325 76.8174C42.5098 76.8186 42.5869 76.8084 42.6612 76.7869C42.727 76.7696 42.7868 76.7344 42.834 76.6854C42.8779 76.6391 42.9186 76.59 42.9559 76.5383C42.9982 76.4735 43.0276 76.4011 43.0423 76.3252C43.0423 76.2338 43.083 76.1526 43.0931 76.0816C43.0981 75.9836 43.0981 75.8853 43.0931 75.7873C43.0931 75.6554 43.0931 75.5539 43.0931 75.4727C43.0931 75.3915 43.0931 75.2748 43.0931 75.1175C43.0233 75.2246 42.927 75.312 42.8136 75.3712C42.6874 75.4336 42.548 75.4649 42.4071 75.4626C42.2332 75.4682 42.06 75.4371 41.8989 75.3712C41.7662 75.3136 41.6507 75.2227 41.5635 75.1074C41.4831 74.9933 41.423 74.8663 41.3857 74.7319C41.3702 74.5847 41.3753 74.4362 41.4009 74.2904ZM42.092 74.2397C42.092 74.3462 42.092 74.4325 42.092 74.5035C42.0874 74.5847 42.0874 74.666 42.092 74.7471C42.0983 74.8236 42.1154 74.8987 42.1429 74.9704C42.1656 75.0291 42.1945 75.0853 42.2292 75.1378C42.2642 75.1898 42.3137 75.2304 42.3715 75.2545C42.4358 75.2818 42.505 75.2957 42.5748 75.2951C42.703 75.2877 42.8255 75.24 42.925 75.1589C43.0245 75.0778 43.0958 74.9674 43.1287 74.8435V74.6608C43.1304 74.4251 43.1169 74.1895 43.0881 73.9555C43.0732 73.8036 43.0355 73.6548 42.9763 73.5141C42.941 73.4318 42.887 73.3589 42.8187 73.301C42.7609 73.26 42.6914 73.2386 42.6205 73.2401C42.5308 73.2382 42.4426 73.264 42.3681 73.314C42.2935 73.3639 42.2362 73.4355 42.2038 73.5192C42.1129 73.7479 42.0746 73.9942 42.092 74.2397Z" fill="white"/>
<path d="M53.4599 75.082C53.4585 74.8762 53.4755 74.6707 53.5107 74.468C53.549 74.2821 53.6052 74.1002 53.6784 73.9251C53.748 73.7643 53.8423 73.6153 53.9579 73.4836C54.0675 73.3597 54.2028 73.261 54.3543 73.1944C54.5136 73.1214 54.6872 73.085 54.8625 73.0878C55.0656 73.0782 55.2678 73.1196 55.4507 73.2082C55.6336 73.2969 55.7913 73.4299 55.9093 73.5952C56.1771 73.9965 56.3073 74.4737 56.2803 74.9551C56.281 75.1539 56.2657 75.3524 56.2345 75.5488C56.2058 75.7363 56.1564 75.9201 56.0872 76.0968C56.0237 76.2609 55.9364 76.4148 55.828 76.5535C55.7183 76.6833 55.5812 76.7872 55.4266 76.8579C55.2553 76.9392 55.0673 76.9792 54.8777 76.9746C54.5935 76.9853 54.3134 76.9034 54.0799 76.7412C53.8622 76.5744 53.6994 76.3465 53.6124 76.0866C53.5032 75.7632 53.4516 75.4232 53.4599 75.082ZM54.1663 74.9906C54.161 75.3118 54.1848 75.6328 54.2374 75.9496C54.2715 76.1763 54.351 76.3937 54.4712 76.589C54.5088 76.6592 54.5643 76.7183 54.6321 76.7601C54.7 76.802 54.7777 76.8253 54.8574 76.8275C55.0861 76.8275 55.2639 76.6702 55.3656 76.3505C55.5055 75.9096 55.5675 75.4477 55.5485 74.9856C55.5485 73.8185 55.3147 73.235 54.8523 73.235C54.7797 73.2344 54.7081 73.2518 54.644 73.2857C54.5664 73.3331 54.5004 73.3973 54.4509 73.4735C54.3806 73.5748 54.3258 73.6859 54.2882 73.8033C54.2403 73.9696 54.2047 74.1392 54.1815 74.3107C54.1626 74.5368 54.1575 74.7639 54.1663 74.9906Z" fill="white"/>
<path d="M47.2602 74.0266C47.2607 73.9478 47.2709 73.8694 47.2907 73.7932C47.3198 73.7051 47.3608 73.6215 47.4127 73.5445C47.4701 73.4567 47.5423 73.3794 47.6261 73.3162C47.7294 73.2462 47.8424 73.1915 47.9615 73.1538C48.1134 73.1099 48.2708 73.0877 48.429 73.0879C48.7237 73.0751 49.014 73.1628 49.2522 73.3365C49.3528 73.415 49.4334 73.5161 49.4872 73.6316C49.5411 73.7472 49.5668 73.8738 49.5622 74.0012C49.562 74.2468 49.4934 74.4875 49.364 74.6964C49.1614 74.9968 48.9225 75.2712 48.6526 75.5133C48.0479 76.0917 47.7074 76.4165 47.6362 76.4824H48.7085C48.8083 76.4889 48.9085 76.4889 49.0083 76.4824C49.0803 76.4764 49.1517 76.4645 49.2218 76.4469C49.2797 76.4331 49.3326 76.4032 49.3742 76.3607C49.4093 76.3202 49.4369 76.2738 49.4555 76.2237C49.4793 76.1549 49.493 76.0832 49.4962 76.0106H49.6435V76.9949H47.3263V76.6144C47.5312 76.4338 47.7263 76.2424 47.9107 76.041C48.0909 75.8508 48.2605 75.6509 48.4188 75.4422C48.514 75.312 48.599 75.1746 48.6729 75.0312C48.735 74.9073 48.7811 74.776 48.8101 74.6405C48.8355 74.5387 48.8542 74.4353 48.866 74.331C48.8716 74.233 48.8716 74.1347 48.866 74.0367C48.8828 73.833 48.827 73.63 48.7085 73.4633C48.6534 73.4012 48.5852 73.3521 48.5087 73.3196C48.4322 73.2871 48.3494 73.2721 48.2664 73.2756C48.1801 73.2759 48.0944 73.2896 48.0123 73.3162C47.9413 73.3382 47.8756 73.3744 47.8192 73.4227C47.7707 73.4584 47.7279 73.5012 47.6921 73.5496C47.6606 73.5842 47.6379 73.626 47.6261 73.6714H47.6871C47.739 73.6688 47.7908 73.6774 47.839 73.6967C47.8873 73.716 47.9308 73.7454 47.9666 73.783C48.0025 73.8198 48.0306 73.8635 48.0489 73.9115C48.0673 73.9595 48.0756 74.0108 48.0733 74.0621C48.0753 74.1639 48.037 74.2624 47.9666 74.3361C47.8894 74.4081 47.7877 74.4482 47.682 74.4482C47.5763 74.4482 47.4746 74.4081 47.3974 74.3361C47.3528 74.2981 47.3172 74.2505 47.2935 74.1969C47.2697 74.1434 47.2584 74.0851 47.2602 74.0266Z" fill="white"/>
</g>
<defs>
<clipPath id="clip0_31_335">
<rect width="364" height="77" fill="white"/>
</clipPath>
</defs>
</svg>
